<?xml version="1.0" standalone="no"?>
<!DOCTYPE svg PUBLIC "-//W3C//DTD SVG 20010904//EN"
 "http://www.w3.org/TR/2001/REC-SVG-20010904/DTD/svg10.dtd">
<svg version="1.0" xmlns="http://www.w3.org/2000/svg"
 width="1000.000000pt" height="1000.000000pt" viewBox="0 0 1000.000000 1000.000000"
 preserveAspectRatio="xMidYMid meet">
<metadata>
Created by potrace 1.14, written by Peter Selinger 2001-2017
</metadata>
<g transform="translate(0.000000,1000.000000) scale(0.100000,-0.100000)"
fill="#000000" stroke="none">
<path d="M370 9989 c-79 -13 -168 -60 -228 -121 -60 -61 -86 -101 -116 -178
l-21 -55 -3 -4590 c-2 -3147 1 -4612 8 -4660 14 -93 57 -179 122 -243 61 -60
101 -86 178 -116 l55 -21 4590 -3 c3147 -2 4612 1 4660 8 93 14 179 57 243
122 60 61 86 101 116 178 l21 55 3 4590 c2 3147 -1 4612 -8 4660 -14 93 -57
179 -122 243 -61 60 -101 86 -178 116 l-55 21 -4605 1 c-2672 1 -4628 -2
-4660 -7z m7614 -3071 c11 -11 11 -15 -3 -26 -15 -13 -15 -13 0 -9 13 4 15 1
11 -15 -4 -15 -7 -17 -13 -6 -6 9 -9 7 -9 -9 0 -13 5 -23 10 -23 6 0 10 -6 10
-12 0 -9 16 -12 55 -10 30 2 53 7 51 11 -3 4 5 7 17 7 12 -1 21 4 20 10 -2 11
176 12 229 1 73 -14 212 -138 247 -219 13 -29 27 -61 32 -70 13 -26 11 -51 -6
-74 -8 -12 -11 -25 -7 -29 4 -5 2 -5 -5 -1 -7 4 -26 0 -42 -9 -23 -11 -36 -13
-58 -4 -15 5 -37 8 -49 5 -13 -4 -26 -1 -30 6 -29 47 -17 -273 15 -422 22
-100 77 -258 99 -282 8 -10 11 -18 7 -18 -4 0 -1 -8 7 -17 8 -10 27 -47 43
-83 31 -71 73 -143 86 -148 5 -2 9 -8 9 -14 0 -6 12 -27 26 -47 24 -33 23 -33
-19 9 -25 25 -46 50 -47 56 0 6 -10 22 -23 36 -55 59 -174 310 -198 418 -10
47 -26 115 -34 152 -8 37 -19 77 -23 90 -11 30 -3 288 9 288 5 0 9 17 9 38 1
55 25 137 42 140 11 2 18 -16 28 -70 7 -40 17 -81 22 -90 12 -24 55 -23 68 1
11 21 -2 41 -41 62 -14 7 -19 19 -17 44 1 22 -7 47 -26 75 -27 41 -29 79 -4
64 7 -4 -2 9 -20 28 -54 57 -112 81 -199 80 -93 -1 -148 -28 -179 -87 -12 -22
-19 -44 -16 -49 3 -5 0 -6 -6 -2 -14 8 -36 -30 -26 -46 4 -6 3 -8 -3 -5 -6 4
-16 -12 -22 -35 -21 -70 -20 -62 -39 -235 -12 -100 -52 -170 -120 -211 -25
-14 -52 -38 -62 -54 l-18 -30 1 30 c1 17 4 29 8 26 6 -3 49 33 49 42 0 2 -24
-8 -52 -23 -53 -27 -58 -29 -91 -31 -10 -1 -16 -5 -14 -9 3 -5 -9 -9 -26 -10
-34 -1 -105 -9 -122 -13 -5 -1 -17 -1 -25 0 -13 2 44 17 130 36 14 2 34 8 45
11 11 4 25 8 30 9 16 3 119 46 131 55 6 5 15 4 21 -2 7 -7 17 -2 32 17 24 30
24 59 1 59 -21 0 -43 32 -37 54 3 12 -1 18 -12 17 -25 -3 -71 -28 -66 -36 6
-10 -24 -22 -36 -14 -5 3 -9 -1 -10 -8 0 -7 -4 -2 -10 10 -11 28 0 134 12 126
5 -3 9 3 10 13 1 29 10 77 15 82 2 2 5 -28 5 -67 1 -40 3 -76 4 -82 1 -5 3
-15 4 -21 0 -5 6 -7 11 -4 6 4 8 11 5 16 -3 5 2 6 11 2 11 -4 15 -2 11 4 -4 6
7 9 31 8 20 -2 31 -1 24 2 -6 3 -9 9 -6 15 4 5 -4 4 -17 -2 -20 -10 -22 -10
-11 1 6 7 12 25 12 41 0 21 4 26 16 21 14 -5 16 -2 10 21 -4 17 -2 34 5 42 6
8 13 39 15 70 1 30 8 62 15 70 7 9 7 14 1 14 -5 0 -19 -16 -31 -35 -18 -30
-24 -34 -40 -26 -15 9 -22 6 -34 -12 l-16 -22 0 24 c-1 13 6 50 14 82 9 33 13
63 11 68 -12 19 37 92 91 135 63 50 68 52 87 34z m-4647 -115 c94 -97 214
-278 196 -297 -4 -3 0 -6 7 -6 7 0 11 -3 7 -6 -3 -3 10 -37 30 -75 25 -49 42
-71 59 -75 28 -7 30 -16 9 -34 -8 -7 -12 -16 -9 -22 3 -5 -4 -17 -15 -27 -29
-25 -27 -78 5 -171 14 -41 26 -81 26 -87 1 -7 4 -13 8 -13 3 0 6 -9 7 -20 1
-11 0 -20 -2 -20 -9 0 -118 166 -170 260 -32 58 -69 120 -82 138 -13 17 -21
37 -18 42 3 5 0 7 -8 4 -8 -3 -20 -16 -27 -29 -7 -13 -16 -23 -19 -21 -3 2 -6
-13 -6 -34 -1 -22 3 -36 9 -33 5 3 6 1 2 -6 -4 -6 -11 -9 -16 -6 -5 3 -11 1
-15 -5 -3 -5 0 -10 7 -11 7 0 3 -4 -9 -9 -13 -5 -23 -15 -23 -22 0 -15 -63
-40 -97 -39 -13 1 -23 -3 -23 -7 0 -13 134 -137 200 -184 80 -57 172 -104 226
-116 22 -5 49 -15 60 -21 16 -10 9 -11 -36 -6 -30 4 -80 9 -110 11 -30 2 -65
6 -77 9 -33 8 -28 -2 10 -21 17 -9 34 -20 37 -24 3 -4 21 -16 40 -27 99 -54
178 -130 89 -85 -28 13 -52 22 -54 20 -3 -2 26 -41 63 -86 119 -144 135 -166
160 -222 14 -30 31 -62 39 -72 8 -9 10 -19 5 -22 -5 -3 -18 10 -28 29 -10 19
-22 35 -26 35 -5 0 -8 7 -8 15 0 18 -20 20 -20 3 0 -7 -6 -4 -12 7 -6 11 -14
22 -18 25 -8 6 -22 39 -27 65 -2 11 -8 22 -13 23 -6 2 -7 9 -3 15 4 6 1 8 -9
5 -10 -4 -14 0 -14 16 1 12 -4 20 -12 18 -8 -1 -11 1 -8 6 7 12 -33 54 -44 47
-6 -4 -7 2 -3 11 5 14 3 16 -11 11 -9 -4 -15 -3 -12 2 3 4 -4 24 -15 45 -21
40 -18 58 9 50 14 -5 15 -4 2 5 -8 6 -23 8 -34 5 -14 -5 -16 -3 -11 7 6 11 5
12 -5 2 -11 -10 -17 -9 -32 4 -16 14 -21 15 -28 4 -4 -8 -6 -20 -4 -26 3 -7
-3 -15 -13 -19 -50 -17 -86 -35 -74 -35 11 -1 11 -4 1 -16 -7 -8 -9 -15 -5
-15 4 0 2 -7 -5 -16 -11 -12 -11 -15 1 -12 8 2 15 -7 17 -21 2 -14 10 -35 18
-47 9 -12 11 -25 6 -28 -12 -7 -44 62 -36 77 4 7 4 9 -1 5 -5 -5 -14 1 -21 11
-17 24 -64 169 -64 199 0 18 -6 22 -29 22 -16 0 -40 -4 -53 -9 -22 -9 -153
-130 -146 -136 8 -6 138 -66 143 -65 3 0 13 -6 22 -15 8 -9 23 -13 31 -10 9 3
13 3 9 -1 -9 -9 132 -94 147 -88 7 3 13 -7 14 -22 l2 -26 -45 25 c-29 17 -46
21 -49 14 -2 -7 -5 -4 -5 5 -1 10 -12 20 -26 24 -14 3 -25 9 -25 13 0 11 -203
11 -216 0 -11 -9 -12 -4 -9 20 2 17 -1 31 -7 31 -5 0 -8 -7 -4 -15 3 -8 1 -15
-5 -15 -6 0 -8 -4 -4 -9 3 -5 1 -12 -5 -16 -18 -11 -10 -25 25 -42 19 -9 35
-21 35 -25 0 -5 4 -7 8 -4 5 3 19 -6 30 -19 25 -28 45 -102 31 -111 -5 -3 -9
-16 -9 -29 0 -13 -6 -30 -14 -38 -11 -11 -12 -17 -3 -26 9 -9 8 -11 -5 -6 -11
4 -18 2 -18 -4 0 -6 -7 -11 -15 -11 -8 0 -15 -4 -15 -10 0 -5 8 -7 18 -3 9 3
14 2 10 -2 -5 -5 -48 -8 -97 -8 l-90 0 -10 -30 c-6 -16 -11 -40 -11 -51 0 -12
-6 -28 -12 -35 -11 -11 -10 -13 4 -8 13 4 15 2 11 -10 -4 -11 -2 -14 5 -9 7 4
12 3 12 -1 0 -5 14 -10 31 -11 21 -2 28 1 23 9 -4 8 -3 9 4 5 6 -4 9 -13 6
-20 -4 -11 28 -29 39 -23 2 1 18 -10 36 -25 18 -16 41 -28 52 -28 11 0 18 -3
16 -7 -3 -5 1 -14 9 -20 9 -9 15 -10 20 -2 4 7 16 1 33 -15 18 -17 31 -22 40
-16 18 11 43 1 34 -14 -3 -6 -2 -8 2 -3 5 4 17 0 27 -10 10 -9 18 -13 18 -10
0 4 0 9 0 12 0 3 -1 4 -2 3 -6 -5 -48 37 -48 47 0 16 -49 57 -60 50 -4 -3 -6
4 -3 15 3 11 7 20 9 20 2 0 28 -21 57 -47 130 -117 210 -171 316 -213 153 -60
321 11 435 183 46 69 132 276 141 341 4 25 12 46 17 46 6 0 7 -13 3 -31 -6
-27 -5 -30 7 -19 7 7 14 33 14 57 1 43 -11 57 -23 27 -3 -8 -12 -13 -20 -10
-32 13 -81 -22 -110 -76 -42 -80 -48 -103 -52 -185 -1 -26 -5 -33 -21 -33 -13
0 -20 -7 -20 -19 0 -51 -16 -59 -83 -40 -42 11 -202 158 -262 239 -19 26 -43
51 -52 54 -23 9 -55 -23 -50 -51 2 -13 1 -26 -3 -28 -9 -6 -1 -45 13 -62 7 -9
5 -13 -6 -13 -11 0 -19 14 -25 43 -5 23 -13 41 -18 40 -17 -3 27 81 51 99 22
17 24 16 51 -5 16 -12 31 -22 34 -22 2 0 5 -6 7 -14 1 -7 10 -21 20 -31 10
-10 33 -37 52 -59 33 -38 61 -56 45 -28 -4 6 -5 10 -1 7 3 -3 6 -9 7 -15 2
-17 63 -75 79 -75 14 0 14 1 1 10 -10 7 -11 10 -2 10 7 0 15 -7 18 -15 4 -8
13 -15 21 -15 8 0 11 -4 8 -10 -4 -6 1 -7 11 -3 14 5 16 3 11 -10 -6 -15 -3
-16 13 -7 17 9 19 8 13 -7 -6 -16 -5 -16 10 -4 11 8 14 18 9 25 -22 28 -20 42
6 42 24 -1 28 4 38 52 7 28 9 52 5 52 -3 0 -1 4 6 8 6 4 13 16 14 27 2 11 14
35 27 53 26 36 23 38 -19 17 -17 -9 -27 -21 -23 -27 4 -6 3 -8 -3 -5 -10 6
-25 -14 -27 -35 -1 -5 -4 -7 -7 -5 -4 1 -16 -6 -27 -17 -21 -18 -21 -18 -27 7
-8 32 -40 63 -50 48 -8 -13 -25 -14 -25 -2 0 5 20 19 44 30 24 12 55 32 68 44
26 24 75 58 83 57 3 0 15 9 27 20 12 11 26 20 31 20 5 0 22 9 38 21 16 11 29
15 29 9 0 -6 -8 -14 -17 -17 -10 -4 -31 -18 -48 -32 -19 -16 -23 -22 -10 -17
11 5 28 11 38 13 9 3 17 9 17 14 0 5 7 5 17 2 12 -5 14 -3 9 8 -6 11 -4 10 6
-1 9 -10 33 -15 80 -15 52 0 73 -5 94 -21 45 -33 39 -44 -10 -19 -73 37 -81
30 -84 -82 -3 -84 -22 -179 -67 -333 -32 -111 -111 -267 -186 -365 -99 -131
-137 -168 -164 -161 -18 5 -25 0 -35 -23 -6 -17 -9 -34 -6 -39 3 -5 0 -15 -8
-21 -10 -9 -19 -3 -40 29 -30 46 -134 146 -147 142 -5 -1 -8 4 -7 10 2 7 -4
12 -12 10 -8 -2 -12 -1 -8 3 9 9 -3 25 -82 105 -72 73 -187 160 -325 247 -80
50 -253 134 -259 125 -7 -11 -53 -200 -60 -242 -3 -19 -17 -91 -31 -160 -70
-343 -81 -412 -95 -600 -7 -107 -2 -233 13 -290 64 -250 131 -319 251 -260 43
20 176 152 176 173 0 5 11 23 25 39 34 41 66 104 57 113 -4 5 -2 5 4 2 7 -4
20 13 33 44 19 43 21 55 11 82 -28 75 -21 121 24 159 43 36 79 16 85 -47 1
-11 9 -13 34 -8 34 6 78 49 98 96 17 40 24 33 25 -25 0 -29 6 -73 13 -98 14
-50 7 -123 -13 -139 -7 -6 -21 -32 -31 -57 -9 -24 -34 -77 -56 -116 -21 -38
-36 -75 -32 -81 3 -5 2 -8 -3 -4 -5 3 -27 -21 -48 -54 -21 -32 -42 -59 -48
-59 -5 0 -7 -4 -3 -9 3 -5 1 -12 -5 -16 -20 -12 -9 24 25 85 19 34 35 64 35
66 0 2 16 38 35 80 19 41 35 80 35 85 0 5 5 9 10 9 6 0 9 3 8 8 0 4 2 15 5 25
17 44 20 53 22 70 2 24 -16 22 -22 -3 -3 -11 -9 -20 -14 -20 -5 0 -9 -6 -9
-13 0 -7 -15 -40 -32 -73 -80 -147 -101 -138 -29 12 55 114 75 193 50 195 -8
1 -21 0 -29 -1 -17 -2 -59 -49 -60 -66 0 -15 -146 -249 -189 -304 -19 -25 -58
-69 -85 -98 -193 -203 -341 -79 -386 323 -8 71 0 273 15 370 33 220 66 387
112 565 30 118 56 224 56 235 3 27 -74 56 -128 49 -70 -10 -228 -57 -305 -91
-131 -58 -259 -127 -268 -146 -16 -31 -31 -94 -28 -114 2 -10 13 -19 25 -21
23 -4 64 -59 55 -74 -11 -17 -61 -7 -84 17 -12 13 -27 22 -33 18 -6 -3 -7 -1
-3 5 4 7 3 12 -3 12 -5 0 -30 25 -55 55 -73 90 -73 188 -1 293 18 27 31 53 27
57 -4 4 -2 5 3 3 6 -1 35 20 64 49 30 28 72 59 95 69 108 45 134 59 168 92 34
32 36 37 23 52 -22 25 -116 19 -192 -13 -106 -43 -332 -227 -370 -301 -19 -37
-29 -49 -81 -99 -23 -23 -40 -47 -37 -55 2 -7 1 -11 -4 -8 -4 3 -23 -10 -41
-29 -18 -19 -36 -32 -40 -30 -15 9 -2 -95 23 -181 50 -177 34 -507 -33 -679
-6 -16 -11 -31 -11 -33 5 -13 -24 -86 -86 -221 -48 -103 -209 -301 -263 -324
-51 -21 -110 -26 -110 -8 0 4 11 6 24 4 29 -6 86 22 86 42 0 9 -10 15 -25 15
-35 0 -134 36 -156 56 -10 9 -16 21 -13 26 3 5 13 3 22 -5 16 -14 105 -34 126
-29 5 2 6 -4 3 -12 -4 -11 3 -16 26 -18 19 -2 31 -8 30 -15 -7 -34 14 -14 132
121 28 32 56 78 44 72 -10 -5 -10 -4 1 6 8 7 20 22 26 33 6 11 22 41 37 67 14
25 23 49 20 52 -4 3 -1 6 5 6 7 0 12 6 12 13 0 6 6 24 14 38 49 95 96 332 96
489 0 112 -23 307 -43 365 -12 34 -18 40 -46 41 -20 1 -43 12 -60 28 l-27 25
-81 -16 c-70 -15 -90 -16 -145 -5 -73 15 -167 56 -235 104 -27 18 -49 32 -50
31 -1 -1 -16 11 -34 28 -17 16 -35 29 -40 29 -5 0 -9 8 -9 18 0 15 3 14 18 -4
25 -31 88 -75 95 -67 4 3 7 1 7 -5 0 -12 122 -73 197 -97 41 -13 70 -16 130
-10 179 15 193 15 193 -5 0 -19 26 -46 33 -33 14 26 14 44 1 58 -9 8 -11 15
-5 15 11 0 -40 105 -77 161 -9 14 -28 45 -42 67 -14 23 -31 42 -39 42 -8 0
-33 -18 -56 -39 -24 -22 -67 -52 -97 -68 -49 -26 -61 -28 -163 -27 -82 1 -118
5 -140 17 -16 9 -35 17 -41 17 -12 0 -57 40 -51 46 2 2 46 -10 98 -27 128 -43
243 -45 303 -6 11 8 24 14 28 13 4 -1 30 21 57 48 l50 49 -31 44 c-17 23 -35
43 -40 43 -4 0 -7 3 -6 8 1 4 -18 27 -42 50 -25 24 -45 47 -45 50 0 4 -5 15
-11 26 -10 17 -27 5 -175 -119 -90 -76 -163 -142 -161 -147 1 -5 -1 -7 -6 -4
-16 10 -40 -30 -30 -48 9 -17 8 -17 -15 -2 -24 16 -26 16 -50 -11 -14 -15 -34
-39 -45 -52 -12 -16 -25 -22 -35 -18 -28 10 -19 33 23 67 22 18 47 44 55 59
13 26 12 31 -21 77 -79 110 -116 224 -100 308 9 47 51 96 82 96 14 0 22 4 19
10 -11 18 22 10 39 -9 10 -11 27 -21 39 -23 29 -4 33 -26 6 -30 -21 -3 -22 -4
-6 -19 9 -9 14 -18 12 -20 -2 -3 1 -38 6 -79 5 -41 6 -90 3 -109 -10 -51 -22
-18 -25 69 -3 92 -35 200 -60 200 -57 0 -99 -49 -105 -122 -3 -30 3 -45 25
-70 15 -18 34 -46 43 -63 36 -72 61 -115 68 -120 4 -3 15 12 24 33 l17 37 -4
-58 c-2 -34 1 -61 8 -67 7 -6 40 16 100 67 50 41 92 78 95 82 3 3 38 32 78 65
55 43 72 62 66 74 -7 18 -17 57 -33 132 -12 60 -5 140 22 224 26 82 79 143
172 195 58 33 61 34 150 28 75 -4 104 -11 161 -38 38 -18 87 -46 109 -63 21
-17 35 -24 31 -16 -5 8 4 3 21 -12 16 -16 35 -28 41 -28 7 0 16 -10 21 -22 8
-22 10 -20 26 17 9 22 22 69 28 104 10 53 15 65 37 73 38 14 58 37 53 59 -3
10 1 27 8 36 10 12 10 14 2 9 -18 -10 -16 -1 3 18 8 9 17 24 19 35 2 11 9 30
16 43 12 23 12 23 -9 4 -20 -17 -66 -25 -78 -13 -3 3 -1 13 5 24 12 21 71 229
71 249 0 8 7 14 16 14 13 0 14 -6 8 -32 -4 -18 -8 -43 -8 -55 -1 -11 -4 -19
-7 -17 -4 2 -6 -15 -5 -37 0 -22 2 -35 4 -29 6 16 19 12 26 -7 4 -10 4 -14 0
-10 -4 4 -13 -2 -21 -13 -15 -21 -39 -29 -27 -8 5 7 3 8 -5 3 -9 -5 -10 -10
-2 -18 7 -7 17 -5 33 5 25 17 84 33 108 30 8 -1 10 1 4 4 -34 15 30 81 68 71
11 -3 17 -3 14 0 -3 4 1 17 10 31 8 13 13 30 10 37 -2 7 2 16 11 19 9 4 13 13
9 21 -3 9 1 18 10 22 13 5 13 7 2 14 -10 7 -9 9 5 9 10 0 15 5 12 10 -3 6 0
10 7 10 10 0 10 2 -1 9 -8 5 -21 7 -28 4 -9 -4 -11 -8 -5 -12 7 -4 4 -16 -8
-31 -15 -19 -30 -25 -79 -30 -58 -5 -61 -5 -55 15 6 20 6 20 -10 -1 -8 -12
-25 -20 -38 -19 -18 1 -24 9 -29 40 -9 54 -41 78 -97 72 -23 -2 -51 -12 -62
-22 -10 -9 -23 -14 -28 -11 -6 3 -12 -1 -16 -9 -3 -8 -12 -15 -20 -15 -7 0
-17 -7 -20 -16 -4 -9 -9 -14 -13 -10 -4 3 -22 -8 -41 -26 -19 -18 -32 -27 -27
-20 6 11 3 11 -13 1 -12 -7 -18 -17 -16 -21 3 -4 -2 -8 -11 -8 -9 0 -13 -4
-10 -10 3 -5 0 -8 -7 -5 -12 5 -21 -5 -62 -60 -6 -9 -19 -17 -29 -19 -9 -1
-27 -12 -41 -25 -13 -13 -27 -18 -30 -13 -6 11 190 212 207 212 5 0 16 8 24
18 10 11 12 12 8 2 -4 -8 1 -6 9 4 9 11 16 16 16 12 0 -4 21 4 48 18 88 47
135 57 186 42 38 -11 44 -11 39 0 -3 8 -10 11 -16 7 -6 -3 -7 -1 -3 6 6 9 11
9 21 1 9 -8 12 -4 12 17 -1 16 2 44 6 64 6 31 14 38 58 57 42 17 55 19 69 9
26 -18 26 -19 2 -60 l-24 -37 26 -31 c14 -17 24 -35 21 -40 -4 -5 16 -7 46 -4
66 5 93 -8 85 -41 -4 -14 -2 -24 4 -24 17 0 12 -17 -20 -68 -16 -27 -37 -68
-45 -91 -13 -38 -13 -46 1 -73 15 -29 15 -34 0 -65 l-16 -34 22 12 c13 7 26
17 30 23 5 7 16 6 35 -6 15 -9 32 -18 38 -20 5 -1 10 -11 10 -22 2 -16 -1 -15
-17 5 -11 13 -16 17 -12 9 7 -13 6 -13 -9 -1 -10 8 -20 11 -24 7 -3 -3 -2 -6
3 -6 6 0 11 -17 11 -37 1 -105 28 -409 42 -481 5 -23 5 -44 1 -47 -8 -5 -35
170 -50 330 -21 208 -19 197 -43 189 -94 -30 -91 -27 -106 -92 -8 -34 -18 -62
-22 -62 -5 0 -6 8 -2 18 4 13 3 14 -6 6 -7 -6 -14 -29 -16 -50 -3 -21 -10 -58
-16 -81 -9 -34 -9 -46 1 -58 11 -14 4 -25 -50 -80 l-63 -63 42 -12 c43 -11 57
-33 19 -30 -76 6 -86 2 -130 -57 -50 -68 -64 -84 -71 -77 -2 3 -7 -2 -11 -11
-4 -11 -2 -14 7 -10 6 4 1 -3 -12 -14 -13 -12 -20 -21 -16 -21 3 0 -3 -13 -14
-29 -25 -34 -65 -124 -52 -116 5 3 11 0 13 -5 2 -7 22 -1 50 14 26 14 72 29
102 35 31 6 64 15 74 20 9 5 33 12 53 15 20 3 42 8 50 10 20 8 65 15 137 22
50 6 66 4 80 -9 10 -9 33 -22 51 -28 35 -12 37 -32 2 -37 -12 -2 -26 -13 -30
-25 -13 -32 -57 -73 -94 -86 -61 -23 -133 -61 -171 -93 -32 -26 -36 -32 -22
-40 34 -19 60 -16 139 13 68 24 175 57 282 85 71 19 124 25 228 24 86 0 119 4
121 13 2 6 15 50 29 97 62 199 58 178 34 195 -12 8 -34 15 -49 15 -16 0 -28 4
-28 9 0 11 25 21 55 21 18 0 26 8 36 38 6 20 17 40 23 44 8 5 7 8 -1 8 -8 0
-13 14 -13 35 0 23 5 35 13 35 21 0 45 31 50 65 16 93 29 139 47 175 11 22 17
40 13 40 -5 0 -3 4 4 8 19 12 41 113 38 168 -2 27 -6 87 -10 134 -8 129 -14
158 -37 203 -41 82 -90 126 -138 127 -70 0 -166 -52 -202 -111 -31 -49 -27
-170 6 -221 8 -13 23 -58 32 -101 l17 -77 -23 -51 c-20 -43 -22 -55 -13 -80
12 -30 3 -78 -19 -106 -24 -31 -16 -228 17 -428 5 -28 5 -28 -5 -6 -10 23 -42
164 -43 189 0 6 -3 12 -6 12 -3 0 -7 24 -7 54 -1 30 -8 68 -17 85 -11 21 -12
33 -5 37 7 5 8 2 3 -6 -5 -8 -4 -11 3 -6 6 3 10 15 9 26 -1 13 -5 16 -11 10
-14 -14 -29 -12 -20 3 5 7 0 6 -11 -3 -10 -8 -16 -10 -12 -4 8 14 -16 37 -28
26 -5 -4 -5 -2 -2 5 4 6 2 24 -4 40 -6 15 -13 37 -15 47 -2 11 -7 22 -11 25
-11 8 -17 32 -15 61 3 61 8 86 17 92 6 5 6 8 -1 8 -6 0 -17 -7 -24 -15 -7 -8
-17 -12 -24 -8 -6 4 -22 9 -35 11 -33 4 -63 21 -56 32 3 5 19 5 38 -1 17 -5
39 -9 48 -9 17 0 52 45 52 66 0 7 9 9 26 4 25 -6 26 -8 21 -76 -3 -38 -5 -106
-5 -152 1 -76 3 -84 28 -109 30 -30 33 -29 42 12 10 47 10 49 22 69 6 10 8 27
5 38 -3 11 4 28 17 42 12 13 21 30 20 37 -2 8 1 28 5 45 8 36 -20 131 -60 203
-23 41 -24 48 -13 100 14 72 52 128 112 163 90 52 170 58 231 15 75 -53 146
-227 149 -364 1 -44 5 -79 10 -76 4 2 5 9 2 14 -3 5 0 6 8 3 18 -6 54 30 72
71 27 63 22 124 -19 208 -27 57 -38 93 -40 135 -1 31 -7 66 -12 77 -16 30 -11
135 7 146 35 22 61 9 136 -68z m3352 28 c56 -29 101 -87 101 -131 l0 -35 -24
51 c-32 68 -88 110 -161 120 -41 6 -118 -31 -139 -67 -20 -34 -42 -40 -25 -6
15 28 39 51 79 75 39 24 113 21 169 -7z m-1218 -108 c17 -10 42 -24 55 -31 13
-7 33 -25 44 -40 12 -15 23 -25 25 -22 2 3 13 -7 25 -23 12 -15 26 -24 32 -21
7 4 8 2 4 -4 -4 -7 -4 -12 1 -12 4 0 14 -14 21 -30 8 -17 18 -27 24 -24 6 4 8
2 5 -3 -7 -11 16 -66 24 -58 3 2 5 -8 4 -23 0 -17 5 -26 13 -24 8 1 11 -2 6
-9 -3 -6 -1 -14 5 -18 28 -18 19 -151 -10 -151 -5 0 -6 -6 -3 -14 3 -8 1 -23
-6 -33 -10 -16 -10 -15 -5 5 6 21 5 22 -14 11 -11 -8 -18 -15 -16 -17 2 -2 -8
-15 -22 -28 -14 -13 -22 -28 -17 -35 5 -8 3 -9 -5 -4 -13 8 -74 -43 -66 -55 2
-4 -8 -18 -23 -31 -20 -18 -23 -19 -12 -4 8 11 20 23 25 27 15 12 -1 9 -30 -4
-14 -6 -25 -15 -25 -20 0 -4 -5 -8 -10 -8 -6 0 -27 -7 -48 -17 -20 -9 -40 -15
-44 -15 -5 1 -8 -2 -8 -8 0 -5 -6 -7 -14 -4 -7 3 -21 -2 -30 -11 -9 -9 -20
-14 -25 -10 -5 3 -13 0 -17 -6 -5 -8 -3 -9 6 -4 9 5 11 4 6 -4 -6 -9 -11 -9
-22 0 -11 9 -18 7 -32 -11 -15 -18 -21 -20 -27 -10 -5 8 -4 11 3 6 6 -3 13 -2
17 4 3 5 0 10 -8 10 -24 0 -28 -13 -10 -32 12 -14 13 -18 3 -18 -11 0 -11 -3
-2 -12 15 -15 16 -31 0 -22 -7 4 -8 3 -4 -5 6 -9 11 -9 22 0 10 8 14 8 14 0 0
-6 -4 -11 -10 -11 -5 0 -17 -14 -26 -31 -8 -17 -11 -28 -5 -25 6 4 11 3 11 -3
0 -7 8 -7 25 1 20 9 31 8 58 -7 32 -17 34 -17 73 2 21 11 47 19 57 17 10 -1
34 4 54 12 l35 15 -4 60 c-2 32 -3 59 -2 59 1 0 10 -24 19 -54 l17 -55 52 20
c28 12 51 19 52 17 4 -16 134 130 134 151 0 6 5 11 11 11 5 0 7 5 4 10 -3 6
-2 10 4 10 18 0 33 70 28 132 -6 79 11 53 19 -29 6 -51 3 -66 -20 -111 -26
-52 -115 -152 -134 -152 -23 0 -20 -39 8 -119 26 -73 31 -104 36 -220 4 -76 2
-154 -4 -177 -8 -34 -6 -45 9 -65 l19 -24 -2 31 c-1 17 6 43 15 58 20 30 33
35 18 8 -14 -26 -16 -76 -7 -147 4 -33 9 -67 10 -75 1 -8 5 -20 9 -27 4 -6 3
-14 -2 -17 -9 -6 -13 7 -27 86 -4 23 -10 35 -17 31 -6 -3 -7 -1 -3 5 3 6 -8
27 -25 46 -17 20 -27 36 -23 36 5 0 5 4 -1 8 -15 11 -55 70 -55 82 0 5 -7 10
-15 10 -19 0 -19 1 5 -59 26 -67 50 -173 50 -223 0 -48 -7 -47 -13 2 -7 53
-34 159 -55 212 -16 44 -19 46 -30 27 -18 -29 -69 -57 -98 -53 -22 2 -29 -4
-45 -44 -11 -26 -25 -58 -31 -72 -17 -38 -16 -43 21 -62 40 -21 48 -17 34 15
-13 27 -10 28 71 30 32 1 51 -3 54 -11 2 -7 8 -10 13 -6 5 3 9 2 8 -3 -1 -4 8
-30 20 -57 12 -27 23 -68 25 -91 2 -23 8 -50 14 -60 9 -18 9 22 -2 101 -1 12
3 21 11 21 8 0 13 -14 14 -41 3 -148 -14 -356 -37 -466 -18 -90 -40 -121 -30
-45 18 149 26 304 17 350 -6 28 -12 83 -15 122 -4 79 -23 123 -68 156 -19 14
-34 18 -53 13 -23 -6 -26 -11 -20 -34 3 -15 16 -35 28 -44 33 -27 8 -21 -58
12 -33 16 -65 30 -70 30 -14 0 -177 -324 -219 -435 -79 -211 -107 -349 -95
-464 23 -220 118 -343 314 -407 76 -24 320 -27 400 -5 72 21 213 78 263 107
24 14 46 24 48 21 10 -9 -80 -63 -156 -94 -120 -50 -186 -64 -325 -70 -189 -8
-300 23 -415 116 l-44 36 40 -60 c229 -338 420 -646 466 -750 68 -154 93 -257
79 -325 -6 -31 -15 -38 -81 -71 -104 -50 -115 -53 -135 -33 -20 20 -15 72 9
110 20 29 76 41 116 24 16 -7 36 -10 45 -6 21 8 19 76 -5 161 -22 77 -115 274
-159 339 -79 115 -210 319 -233 364 -6 12 -15 22 -20 22 -5 0 -7 4 -4 9 3 5
-1 14 -9 21 -8 7 -29 35 -45 64 -17 28 -39 62 -49 76 -11 14 -40 59 -67 100
-26 41 -61 98 -79 125 -296 463 -388 662 -513 1105 l-18 65 -44 -3 c-23 -1
-68 -9 -99 -17 -115 -29 -133 -27 -104 10 15 19 15 19 9 1 -5 -14 -3 -16 6 -9
7 6 28 14 46 18 18 3 30 10 27 15 -3 4 5 10 18 14 12 3 23 1 25 -3 2 -5 16 -6
31 -1 16 4 41 6 57 3 22 -4 26 -2 14 6 -9 7 -10 11 -3 11 6 0 15 -5 18 -10 5
-8 12 -7 23 2 9 7 13 9 10 3 -4 -6 44 -10 135 -10 78 -1 180 -7 227 -14 47 -8
96 -15 110 -17 38 -5 153 -38 268 -77 72 -24 104 -31 109 -23 10 15 53 107 53
113 0 2 -4 2 -8 -1 -5 -3 -9 1 -9 9 0 8 4 12 8 10 7 -5 42 85 36 91 -7 8 -77
-48 -77 -61 0 -8 -4 -15 -10 -15 -5 0 -10 11 -10 25 0 14 -3 25 -7 25 -5 0
-48 -7 -98 -15 -177 -30 -508 -16 -645 27 -19 6 -45 12 -58 14 -33 3 -184 64
-202 80 -18 17 -2 18 37 3 15 -6 30 -10 32 -9 2 1 7 -4 12 -12 17 -27 33 12
37 88 2 41 9 97 16 124 14 54 12 55 -61 32 -41 -13 -45 4 -5 19 15 6 35 15 44
20 10 5 24 9 33 9 13 0 45 47 45 67 0 4 -12 8 -27 9 -54 1 -148 17 -187 31
-42 14 -86 49 -86 67 0 8 3 8 8 0 22 -34 114 -61 237 -70 50 -4 100 -12 113
-18 l23 -12 -21 -19 c-18 -16 -20 -17 -14 -2 3 9 2 17 -4 17 -14 0 -23 -28
-11 -36 5 -3 16 -1 23 5 7 6 17 7 21 3 5 -4 5 -2 2 4 -3 6 3 18 14 27 11 10
17 23 13 29 -4 7 -3 8 4 4 6 -3 35 5 63 19 29 14 58 25 65 25 6 0 32 9 58 21
25 11 50 17 55 14 5 -3 12 4 16 15 7 20 25 28 25 10 0 -5 -4 -10 -10 -10 -5 0
-10 -8 -10 -17 0 -16 2 -16 11 -3 9 12 12 13 16 1 4 -11 7 -11 14 0 4 7 11 10
14 7 11 -10 -15 -77 -33 -88 -9 -5 -13 -10 -8 -10 5 0 -3 -9 -17 -20 -57 -45
-160 -68 -349 -79 -35 -2 -67 -111 -68 -232 l0 -76 48 -12 c67 -17 120 -28
172 -36 25 -4 70 -11 100 -15 102 -16 404 -5 515 19 55 11 110 21 122 21 17 0
23 8 29 43 5 23 7 50 6 61 -1 10 2 24 7 30 28 34 9 119 -42 181 -22 27 -27 28
-51 17 -15 -7 -37 -12 -49 -12 -13 0 -27 -4 -33 -8 -34 -32 -186 -63 -199 -42
-4 6 5 26 19 45 37 48 44 90 18 104 -10 6 -22 7 -26 4 -3 -3 -6 -1 -6 6 0 7
-4 9 -10 6 -5 -3 -10 -1 -10 4 0 6 -6 11 -13 11 -23 0 -49 26 -52 51 -2 22 1
24 44 26 78 5 141 14 146 23 9 14 -118 71 -164 73 -43 2 -43 2 -59 -45 -8 -27
-18 -48 -22 -48 -3 0 -17 12 -31 27 l-24 27 29 -18 c26 -17 28 -17 23 -2 -5
12 -3 15 6 11 6 -4 2 3 -11 14 -16 14 -24 33 -26 63 -2 28 -8 42 -16 40 -8 -2
-10 3 -7 13 8 18 -4 20 -22 3 -7 -7 -12 -8 -11 -3 2 6 2 19 1 30 -1 17 -3 18
-11 5 -9 -14 -14 -7 -11 13 1 5 -3 6 -9 2 -5 -3 -19 -8 -30 -10 -18 -3 -19 -1
-9 17 7 13 7 18 0 14 -11 -7 -34 27 -25 37 21 21 131 -43 161 -93 19 -32 60
-54 157 -85 32 -11 79 -32 102 -48 40 -26 47 -28 81 -17 62 20 133 53 133 63
0 14 -40 63 -120 145 -82 84 -211 175 -313 221 -88 39 -217 82 -228 75 -5 -3
-9 -1 -9 5 0 5 -39 18 -87 30 -121 27 -163 33 -163 21 0 -6 -12 -10 -27 -10
-69 -1 -165 -30 -214 -66 -64 -47 -129 -133 -161 -211 -14 -35 -28 -60 -31
-56 -4 3 -3 11 2 17 11 14 36 88 33 99 -1 4 3 7 9 7 5 0 8 4 5 8 -6 10 34 72
81 125 18 20 33 40 33 45 -1 4 -9 -3 -19 -15 -15 -18 -20 -20 -25 -8 -3 8 4
21 17 30 l21 15 -22 0 c-15 0 -22 6 -22 19 0 11 -5 21 -11 23 -6 2 -2 14 10
30 19 23 30 27 108 33 92 8 139 -1 175 -35 11 -10 43 -21 71 -24 29 -4 93 -16
142 -28 50 -12 96 -21 103 -21 6 0 12 -3 12 -7 0 -3 28 -15 63 -25 34 -10 82
-28 107 -40 25 -12 68 -32 95 -44 62 -29 156 -95 215 -153 66 -66 150 -158
150 -166 0 -4 4 -13 9 -20 7 -12 14 -11 42 3 61 31 119 95 134 150 43 153 20
278 -63 343 -57 44 -173 109 -209 117 -18 4 -35 11 -38 16 -9 14 -58 10 -79
-6 -10 -8 -23 -12 -27 -9 -13 8 -11 -10 4 -25 8 -9 8 -12 0 -7 -6 3 -3 -11 7
-31 23 -47 17 -60 -28 -66 -50 -6 -78 6 -86 36 -11 44 10 74 85 127 57 41 150
42 220 3z m979 3 c0 -3 -4 -8 -10 -11 -5 -3 -10 -1 -10 4 0 6 5 11 10 11 6 0
10 -2 10 -4z m-23 -48 c-3 -8 -6 -5 -6 6 -1 11 2 17 5 13 3 -3 4 -12 1 -19z
m14 -188 c7 -14 16 -43 21 -65 4 -22 10 -47 12 -55 3 -8 5 -19 5 -23 1 -5 6
-5 11 -2 6 3 15 3 22 -1 7 -5 5 -11 -7 -21 -21 -15 -13 -18 13 -4 9 5 58 22
107 37 50 16 100 39 113 51 13 13 27 23 32 23 5 0 11 4 14 9 3 4 -7 6 -22 3
-34 -6 -27 2 16 16 18 6 30 7 27 2 -3 -5 -2 -11 3 -14 4 -2 8 6 8 20 0 16 -5
23 -12 20 -9 -3 -11 1 -7 12 6 15 5 15 -10 3 -22 -17 -25 -14 -31 33 -3 28 0
42 14 56 19 19 38 11 25 -10 -4 -6 -1 -17 5 -25 7 -8 10 -15 6 -15 -3 0 8 -21
24 -47 23 -36 27 -49 17 -56 -8 -6 -7 -7 5 -3 11 3 24 -4 36 -19 11 -13 22
-22 25 -19 3 3 8 -4 12 -17 4 -12 26 -47 50 -78 50 -67 67 -96 58 -105 -15
-14 -37 -3 -75 39 -38 41 -54 48 -88 35 -3 -2 -9 -2 -15 -1 -5 1 0 -7 12 -18
12 -10 19 -22 15 -26 -4 -5 -2 -5 4 -2 7 4 17 0 24 -8 7 -8 20 -15 29 -15 29
-1 53 -47 46 -88 -8 -46 -48 -127 -62 -127 -6 0 -15 -4 -20 -9 -5 -5 -3 -6 5
-2 6 4 12 2 12 -3 0 -12 -23 -15 -33 -4 -4 3 -1 13 6 22 11 14 10 14 -6 2 -16
-13 -20 -13 -27 -1 -6 9 -5 17 2 21 7 4 7 9 -1 13 -6 4 -8 12 -5 18 5 7 2 8
-6 3 -10 -6 -12 -4 -6 10 5 15 4 16 -9 5 -14 -11 -13 -14 1 -25 12 -8 14 -14
6 -19 -7 -4 -12 -2 -12 4 0 19 -25 -12 -53 -64 -14 -26 -24 -57 -22 -67 2 -11
0 -17 -6 -14 -5 4 -7 12 -3 18 3 7 -4 1 -15 -13 -19 -23 -26 -42 -22 -63 1 -5
-3 -6 -9 -2 -5 3 -10 2 -10 -3 0 -12 40 -102 45 -102 10 0 95 141 90 150 -4 6
-2 9 3 8 5 -2 19 8 30 22 18 21 21 22 22 8 0 -10 -9 -27 -20 -38 -11 -11 -20
-24 -20 -30 0 -5 -4 -10 -10 -10 -5 0 -10 -7 -10 -15 0 -8 -3 -15 -8 -15 -4 0
-22 -22 -40 -50 l-33 -50 27 -52 c32 -64 30 -62 46 -52 7 4 29 7 48 6 28 -1
31 0 15 7 -20 9 -20 10 1 10 12 1 27 -5 33 -13 12 -15 5 -46 -11 -46 -5 0 -6
-5 -3 -10 4 -6 2 -9 -4 -8 -5 2 -16 -6 -24 -16 -13 -17 -10 -26 25 -88 22 -37
42 -68 46 -68 3 0 15 8 26 18 l21 17 -20 -23 c-15 -19 -17 -25 -6 -31 8 -5 11
-13 7 -19 -3 -5 20 -61 53 -124 48 -95 61 -113 73 -104 8 6 13 18 11 26 -4 13
-3 13 6 0 7 -10 6 -19 -5 -31 -19 -21 -18 -32 6 -85 24 -51 25 -51 113 15 26
20 51 36 55 36 4 1 25 10 47 22 45 24 105 36 105 22 0 -5 -1 -9 -2 -9 -31 -2
-257 -120 -278 -145 -9 -11 -5 -32 20 -102 17 -48 35 -97 40 -108 19 -43 69
-204 85 -270 8 -38 21 -88 27 -110 13 -44 14 -51 16 -77 1 -12 10 -18 26 -18
51 0 184 34 236 60 53 27 150 114 150 135 0 5 21 33 46 60 24 28 60 82 79 120
34 70 49 140 30 140 -5 0 -32 16 -60 35 -27 19 -56 33 -62 32 -7 -2 -13 2 -13
8 0 5 -6 10 -13 10 -8 0 -20 12 -28 27 -13 26 -99 118 -99 107 0 -2 -12 6 -27
20 -22 20 -162 101 -310 177 -18 9 -30 19 -27 22 3 3 19 -2 36 -11 17 -8 44
-15 59 -16 15 -1 25 -3 23 -5 -4 -5 50 -40 96 -63 37 -18 182 -109 203 -127
19 -16 110 -24 101 -9 -3 5 -10 5 -16 2 -7 -4 -8 -2 -4 5 4 6 2 20 -5 29 -7 9
0 5 15 -11 15 -15 33 -24 39 -21 8 5 8 3 0 -7 -16 -16 -17 -29 -2 -29 5 0 8 4
5 9 -3 5 0 11 8 14 33 13 3 59 -41 64 -16 1 -32 3 -38 4 -5 1 -14 0 -20 -2 -5
-2 -11 1 -12 6 -2 6 1 10 6 10 19 0 16 11 -8 35 -13 14 -20 18 -16 10 5 -9 5
-12 -1 -7 -5 5 -9 12 -9 17 0 4 -11 21 -25 37 -27 32 -64 93 -56 93 3 0 1 11
-4 25 -5 14 -6 25 -1 25 5 0 11 -14 15 -31 4 -20 10 -28 17 -23 7 4 9 3 6 -3
-7 -12 30 -65 64 -91 13 -11 43 -29 67 -41 23 -12 42 -25 42 -29 0 -4 10 -18
23 -32 55 -61 77 -92 71 -102 -9 -13 -9 -97 -1 -103 4 -3 5 -2 2 2 -3 3 2 17
11 31 9 13 12 27 8 31 -5 3 -11 15 -13 26 -3 19 -2 19 17 2 20 -18 20 -18 30
45 l9 63 2 -71 c1 -50 5 -75 16 -84 8 -7 15 -19 15 -27 0 -8 4 -12 9 -9 5 3
14 -1 21 -10 7 -8 20 -12 29 -9 8 3 12 3 8 -1 -4 -4 3 -18 15 -31 32 -35 7
-28 -34 10 -20 17 -41 33 -48 35 -17 4 -24 -26 -10 -43 11 -13 10 -14 -5 -9
-13 5 -16 4 -11 -4 4 -7 2 -12 -6 -12 -8 0 -9 -3 -3 -8 6 -4 38 -37 72 -73 34
-37 65 -65 68 -63 3 2 3 1 1 -2 -2 -3 17 -27 43 -53 25 -27 69 -81 96 -121 28
-39 64 -88 82 -108 29 -34 32 -35 39 -17 18 49 45 75 78 75 27 0 45 12 102 68
74 72 153 160 155 171 0 3 2 22 3 42 l2 37 -60 -54 c-32 -29 -62 -51 -67 -49
-4 3 -9 1 -11 -3 -13 -34 -228 -94 -228 -63 0 6 6 11 13 12 96 8 136 18 195
52 31 17 50 33 43 35 -9 3 -5 13 12 31 51 54 168 208 203 269 29 48 42 62 60
62 45 0 46 -6 12 -100 -10 -30 -21 -66 -24 -80 -13 -72 -18 -88 -37 -123 -12
-21 -38 -48 -58 -60 -20 -12 -59 -50 -87 -83 -78 -94 -174 -184 -202 -190 -45
-10 -69 -26 -85 -60 -8 -18 -20 -36 -24 -39 -8 -4 -105 112 -136 164 -5 9 -12
18 -15 21 -3 3 -23 27 -45 55 -22 27 -81 93 -132 145 l-92 95 -16 -40 c-71
-177 -114 -250 -183 -312 -68 -59 -81 -69 -142 -100 -19 -10 -37 -21 -40 -24
-8 -9 -140 -39 -183 -41 -36 -2 -38 -4 -33 -28 4 -14 8 -137 10 -275 4 -241 4
-243 -3 -60 -8 184 -27 354 -40 356 -3 0 -33 2 -66 5 -68 5 -214 32 -230 42
-5 4 -21 8 -34 10 -13 2 -37 10 -53 18 -15 8 -28 13 -28 10 0 -2 -63 27 -140
65 -159 78 -166 78 -218 5 -17 -22 -39 -52 -51 -65 -11 -13 -29 -41 -38 -62
-21 -46 -31 -49 -38 -11 -10 47 -21 57 -58 57 -29 0 -47 11 -110 67 -104 94
-306 362 -307 407 0 7 -15 48 -34 90 -35 77 -62 188 -53 213 5 13 14 -5 43
-82 10 -27 13 -30 14 -13 0 16 4 21 16 16 9 -3 12 -9 7 -12 -12 -9 -15 -34 -4
-27 5 4 14 -2 20 -11 9 -16 10 -16 11 5 0 12 -4 22 -9 22 -6 0 -8 9 -6 19 2
12 -3 21 -16 24 -11 3 -19 0 -19 -6 0 -7 -4 -6 -9 3 -6 8 -8 17 -5 22 5 8 67
-24 66 -35 -2 -14 86 -173 132 -240 53 -75 80 -98 178 -151 96 -52 198 -50
126 4 -69 51 -302 283 -419 417 -45 51 -66 69 -72 60 -5 -7 -6 -3 -2 12 6 18
4 22 -6 16 -8 -5 -11 -4 -6 0 4 5 0 16 -9 26 -15 16 -14 17 8 12 12 -4 25 -9
28 -13 10 -14 76 -94 95 -115 153 -173 222 -245 306 -321 121 -110 138 -124
151 -124 48 0 225 119 263 176 9 14 19 23 22 20 3 -3 20 13 38 34 30 36 34 38
46 22 7 -9 9 -14 5 -10 -5 4 -19 -7 -32 -25 -25 -36 -16 -62 18 -51 18 5 19 4
7 -18 l-12 -23 24 20 c37 31 64 59 64 66 0 4 4 11 9 16 5 5 6 2 1 -6 -5 -9 -4
-12 2 -8 11 7 15 57 4 57 -4 0 -8 14 -9 32 -3 38 -10 47 -21 29 -6 -10 -10 -9
-14 4 -4 9 -3 13 2 10 5 -3 16 3 23 13 26 37 90 60 94 34 0 -4 4 -14 7 -22 4
-8 11 -28 17 -44 10 -27 11 -27 33 -13 12 9 21 20 20 26 -2 6 5 7 14 4 12 -5
15 -2 11 8 -3 8 -14 33 -23 56 l-17 43 -30 -21 c-16 -12 -32 -18 -36 -14 -4 3
0 10 8 15 57 33 58 26 -9 161 -33 68 -74 147 -91 174 -17 28 -37 64 -45 82
-20 43 -33 49 -46 19 -10 -22 -7 -35 25 -101 21 -41 42 -75 47 -75 21 0 6 -21
-33 -44 -39 -23 -65 -26 -52 -5 3 5 -8 44 -25 85 -17 42 -28 81 -24 88 3 6
-25 -18 -64 -54 -65 -60 -90 -91 -60 -74 8 5 9 4 2 -4 -5 -5 -19 -12 -29 -14
-26 -4 -24 -20 5 -35 13 -7 20 -13 15 -13 -5 0 -2 -8 5 -17 9 -11 10 -14 2 -9
-9 5 -11 2 -7 -8 3 -9 11 -16 16 -16 6 0 8 -7 4 -15 -3 -8 0 -15 7 -16 9 0 9
-2 0 -6 -7 -2 -13 -11 -13 -19 0 -26 -20 -53 -34 -48 -8 3 -12 14 -9 25 3 10
0 25 -6 32 -6 7 -12 28 -13 46 -1 19 -14 46 -31 64 -22 25 -25 33 -13 37 8 3
63 52 121 109 58 57 109 100 112 97 8 -8 53 34 53 49 0 7 -8 19 -17 27 -21 18
-67 9 -98 -19 -11 -10 -31 -24 -45 -31 -14 -7 -32 -18 -40 -25 -20 -16 -55
-70 -52 -80 1 -5 -2 -6 -8 -2 -6 4 -21 -17 -36 -49 -14 -31 -29 -56 -34 -56
-18 0 -40 13 -40 23 0 17 -61 66 -75 61 -10 -4 -11 -14 -4 -37 12 -43 11 -59
-3 -55 -16 6 -20 107 -5 110 42 5 67 4 67 -4 0 -5 5 -6 10 -3 6 3 10 1 10 -5
0 -6 4 -9 9 -6 5 4 11 1 13 -6 2 -6 12 -12 21 -14 16 -2 22 8 18 29 -1 5 3 6
8 3 14 -9 21 20 8 35 -10 11 -9 11 4 1 14 -10 19 -8 33 13 22 33 41 52 90 89
l39 29 -24 13 c-13 7 -21 13 -17 14 4 0 3 12 -3 28 -6 15 -13 45 -15 66 -2 21
-6 41 -9 44 -12 12 -97 -117 -88 -133 4 -5 3 -7 -2 -3 -4 4 -14 3 -22 -3 -11
-10 -11 -15 -1 -28 11 -14 11 -14 -3 -3 -14 10 -25 1 -78 -67 -47 -59 -67 -78
-81 -74 -10 3 -16 11 -14 18 3 7 1 22 -5 33 -6 11 -7 22 -3 26 3 4 11 -7 17
-25 l11 -31 79 98 c66 83 108 141 209 288 6 9 4 25 -7 47 -8 19 -27 64 -41
102 -14 37 -32 82 -40 100 -7 17 -26 72 -42 121 -15 48 -33 90 -40 93 -14 5
-186 -82 -259 -132 -89 -60 -97 -69 -104 -112 -7 -35 -4 -50 20 -92 15 -28 23
-53 18 -57 -21 -13 -46 10 -71 69 -23 52 -27 73 -24 134 4 85 -7 153 -26 167
-8 6 -13 16 -11 22 3 8 17 7 48 -4 43 -14 45 -13 74 11 17 14 28 27 25 29 -2
3 24 13 58 22 35 9 74 21 88 26 14 4 39 11 55 14 29 6 29 5 -7 -14 -37 -20
-57 -40 -40 -40 5 0 15 7 22 15 7 8 17 15 23 15 6 0 1 -7 -11 -16 -12 -8 -20
-19 -17 -23 2 -5 -8 -6 -23 -4 -21 4 -24 2 -12 -6 10 -7 11 -11 3 -11 -7 0
-13 -5 -13 -11 0 -6 8 -8 18 -5 16 6 16 5 0 -7 -10 -8 -15 -16 -12 -19 3 -4 0
-9 -7 -14 -8 -4 -10 -3 -5 4 4 7 1 12 -6 12 -9 0 -9 3 2 10 13 9 13 10 0 10
-8 0 -22 -4 -30 -10 -12 -8 -12 -10 3 -16 10 -4 16 -13 13 -20 -4 -10 139 54
163 73 3 2 -4 10 -15 18 -16 13 -16 14 -1 9 11 -4 17 -1 17 9 0 25 -11 47 -21
41 -5 -3 -9 -1 -9 5 0 5 8 14 17 20 15 8 15 13 5 36 -7 15 -11 65 -11 118 l1
92 9 -60 c5 -33 14 -71 20 -85z m969 20 c0 -8 -16 -41 -36 -73 -41 -63 -142
-137 -189 -137 -22 0 -25 4 -25 33 0 17 4 37 8 42 9 12 68 13 79 1 4 -5 -3 -5
-16 -1 -21 6 -22 5 -10 -8 8 -8 20 -12 28 -9 10 4 12 1 6 -9 -5 -8 1 -6 13 5
12 10 19 23 16 27 -3 5 1 6 8 4 14 -6 43 28 71 82 20 38 21 47 5 37 -10 -6
-10 -5 -1 8 7 8 10 18 7 21 -3 3 -3 11 1 17 8 13 34 -17 35 -40z m-3251 6
c-53 -55 -61 -65 -54 -76 3 -6 2 -9 -4 -8 -12 4 -62 -62 -55 -73 3 -5 1 -9 -4
-9 -5 0 -9 -6 -10 -12 0 -7 -4 -29 -8 -48 -8 -38 -11 -233 -4 -292 2 -21 10
-38 16 -38 7 0 20 -3 30 -7 13 -5 15 -3 9 8 -5 8 3 4 17 -8 13 -13 28 -23 33
-23 4 0 23 -11 41 -25 18 -14 35 -25 38 -25 3 0 19 28 36 63 16 34 30 57 30
51 0 -22 -29 -106 -45 -130 l-17 -26 -21 20 c-25 23 -104 61 -127 62 -12 0
-15 -8 -12 -36 4 -30 0 -40 -19 -55 -33 -26 -70 -23 -115 7 -55 36 -134 121
-150 159 -7 18 -18 35 -24 37 -14 4 -39 76 -40 114 0 21 9 39 29 58 27 26 32
27 65 16 36 -11 41 -30 8 -30 -15 0 -15 2 -2 10 12 8 9 10 -13 10 -30 0 -29
-7 3 -45 22 -25 32 -79 19 -92 -8 -8 -7 -17 0 -31 14 -26 14 -35 1 -27 -13 8
-13 -8 1 -39 7 -14 16 -23 22 -19 6 3 7 1 3 -5 -9 -15 39 -68 91 -99 37 -21
48 -24 68 -15 21 10 24 18 23 56 0 29 -4 43 -11 39 -5 -3 -7 -1 -3 5 3 6 2 13
-4 17 -6 4 -8 10 -5 14 2 5 -8 21 -23 37 -15 15 -21 24 -14 20 12 -7 12 -4 2
14 -7 13 -17 19 -26 16 -9 -3 -12 -1 -9 4 3 6 -1 13 -10 16 -13 6 -14 8 -3 15
19 12 -4 11 -37 -1 -17 -7 -24 -7 -20 0 3 6 0 10 -7 11 -10 0 -10 2 0 6 6 2
10 9 7 13 -3 5 -1 11 4 15 6 3 8 -3 6 -15 -2 -13 1 -20 11 -20 8 0 13 4 9 9
-3 5 -1 13 5 16 11 7 -36 55 -53 55 -5 0 -5 5 -2 10 13 21 122 -67 137 -111
10 -28 16 -3 9 38 -7 38 8 151 26 193 3 8 7 17 8 20 1 3 12 26 24 52 12 26 21
50 20 54 -2 10 100 104 113 104 6 0 0 -11 -13 -24z m2615 -48 c-3 -4 -11 -8
-18 -8 -21 0 -40 -27 -24 -32 7 -3 -1 -5 -18 -5 -25 0 -31 4 -30 21 1 16 9 22
36 26 50 8 60 8 54 -2z m-967 -56 c17 -26 39 -65 48 -87 10 -22 21 -47 26 -57
6 -11 3 -18 -9 -23 -9 -3 -13 -3 -9 1 4 4 0 18 -8 31 -9 13 -12 23 -8 23 3 0
-4 11 -17 25 -12 13 -28 21 -34 18 -6 -4 -4 2 4 12 14 17 13 18 -5 11 -11 -4
-16 -4 -12 0 4 4 2 13 -5 21 -6 7 -8 16 -5 20 4 3 2 12 -4 20 -6 7 -8 13 -3
13 5 0 2 5 -6 10 -13 9 -13 10 0 10 8 0 29 -22 47 -48z m-3549 13 c-3 -3 -9 2
-12 12 -6 14 -5 15 5 6 7 -7 10 -15 7 -18z m4412 11 c0 -9 -40 -13 -46 -5 -3
5 6 9 20 9 14 0 26 -2 26 -4z m-137 -23 c-7 -2 -19 -2 -25 0 -7 3 -2 5 12 5
14 0 19 -2 13 -5z m178 -7 l24 5 -23 -12 c-19 -11 -26 -9 -40 6 -12 13 -12 16
-1 7 8 -6 26 -9 40 -6z m-4586 -96 c-27 -12 -43 -12 -25 0 8 5 22 9 30 9 10 0
8 -3 -5 -9z m2325 -90 c0 -11 -6 -20 -14 -20 -18 0 -58 -39 -91 -88 -15 -23
-32 -42 -36 -42 -13 0 -11 24 3 38 7 7 9 12 6 12 -4 0 12 20 35 45 24 25 50
45 59 45 11 0 15 5 12 15 -4 9 0 15 10 15 9 0 16 -8 16 -20z m380 0 c0 -10 6
-23 13 -27 6 -4 22 -22 33 -38 21 -30 21 -32 3 -53 -10 -13 -20 -18 -24 -12
-3 5 -2 10 2 10 5 0 10 11 11 24 1 19 -8 30 -41 49 -43 25 -55 27 -119 27 -21
-1 -38 4 -38 9 0 16 52 22 103 12 44 -8 69 2 30 12 -14 4 -12 5 5 6 16 1 22
-5 22 -19z m2480 17 c0 -2 -12 -17 -26 -33 -70 -78 -172 -263 -178 -321 -3
-37 33 -133 59 -155 16 -14 11 -13 -24 3 -25 12 -49 26 -55 33 -9 9 -13 60 -6
76 1 3 3 21 5 40 3 34 3 34 -11 10 -13 -24 -13 -24 -9 10 5 32 4 33 -6 13 -7
-13 -16 -23 -21 -23 -5 0 -6 -4 -3 -10 3 -5 1 -10 -4 -10 -6 0 -11 -5 -11 -11
0 -5 4 -7 10 -4 6 3 7 -1 4 -9 -3 -9 -9 -14 -13 -11 -5 2 -9 -18 -10 -46 l-1
-51 32 3 c37 2 88 -9 88 -20 0 -7 7 -9 49 -13 11 -1 17 -6 15 -10 -10 -16 59
-7 82 11 13 10 21 20 19 23 -2 2 4 4 15 5 11 1 34 9 52 17 42 19 79 26 165 28
63 1 73 -1 133 -38 87 -53 98 -57 117 -38 9 8 22 13 29 10 8 -3 14 0 14 6 0 6
3 8 7 5 3 -4 13 2 20 13 8 11 18 18 22 15 14 -8 54 43 47 61 -6 15 -18 16
-114 10 -121 -7 -194 -13 -267 -20 -27 -3 -77 -8 -110 -11 -33 -3 -72 -8 -87
-11 -28 -6 -28 -5 -28 46 0 60 -25 121 -45 113 -21 -7 -66 42 -58 63 4 10 0
22 -10 29 -29 21 1 32 108 39 l100 7 1 -41 c1 -22 9 -49 18 -59 17 -19 12 -31
-13 -31 -27 0 -50 -36 -56 -91 l-6 -51 73 7 c40 4 96 8 123 9 171 9 244 24
229 47 -3 5 4 9 16 9 11 0 23 7 26 15 4 10 14 13 33 9 15 -3 21 -2 15 3 -13 9
-1 52 16 54 5 1 19 3 30 4 11 1 25 3 30 4 6 0 10 11 10 24 0 15 11 29 30 40
17 10 30 25 30 33 0 8 -3 13 -7 12 -5 -2 -8 2 -8 7 0 6 14 9 30 7 l30 -3 -28
15 c-15 8 -34 13 -42 9 -8 -3 -15 0 -15 6 0 6 8 11 18 11 10 0 22 4 28 8 5 4
27 14 49 21 21 8 45 20 53 27 20 21 37 17 52 -11 11 -21 11 -27 -3 -43 -31
-34 -18 -86 31 -129 14 -13 22 -23 18 -23 -4 0 -3 -8 2 -17 16 -27 -5 -73 -33
-73 -25 0 -165 -68 -165 -80 0 -4 -43 -34 -96 -66 -53 -32 -99 -64 -101 -72
-9 -21 39 -62 83 -72 21 -5 66 -10 99 -10 33 0 87 -7 120 -15 33 -9 103 -18
155 -21 78 -4 101 -10 130 -29 19 -13 46 -27 60 -30 30 -7 102 -55 107 -72 3
-7 -9 -11 -31 -10 -20 1 -36 5 -36 9 0 4 -11 8 -25 8 -16 0 -25 6 -25 15 0 8
-5 15 -11 15 -5 0 -7 -6 -3 -12 6 -10 4 -10 -7 0 -14 13 -33 17 -26 5 3 -5 -6
-9 -19 -9 -13 -1 -21 2 -18 7 3 5 0 9 -5 9 -6 0 -11 -4 -11 -9 0 -9 -35 -7
-67 3 -43 14 -83 -60 -51 -92 16 -16 5 -16 -79 4 -66 15 -226 43 -249 44 -8 0
-6 -24 7 -77 9 -43 18 -79 18 -81 0 -1 4 -26 10 -55 14 -69 20 -160 11 -150
-5 4 -15 56 -24 115 -8 59 -25 139 -37 178 -24 80 -15 76 -164 89 -94 9 -101
8 -117 -11 -10 -11 -16 -24 -13 -28 3 -5 0 -12 -6 -16 -8 -5 -10 -2 -4 7 4 8
-6 -2 -23 -21 -21 -25 -27 -38 -20 -47 6 -7 15 -10 22 -6 6 4 5 0 -2 -9 -10
-13 -10 -17 0 -21 10 -4 11 -7 1 -18 -11 -11 -13 -10 -14 6 -1 11 -1 23 0 28
0 4 -4 7 -9 7 -6 0 -10 -6 -10 -12 0 -10 -2 -10 -8 0 -6 9 -19 5 -51 -18 -23
-17 -39 -35 -36 -40 4 -6 0 -13 -8 -16 -21 -8 -107 -12 -112 -5 -2 4 24 21 58
39 34 18 73 43 87 55 30 27 110 122 110 131 0 15 -53 25 -171 31 -68 4 -136 7
-151 6 -30 -1 -38 13 -12 23 8 3 13 10 9 16 -3 5 8 16 25 25 16 8 30 20 30 26
0 6 4 7 10 4 5 -3 7 0 4 8 -3 8 -1 18 5 22 18 10 14 48 -4 41 -8 -3 -15 0 -15
6 0 6 -3 8 -6 5 -4 -3 -14 -2 -23 3 -9 4 -37 11 -61 15 -24 4 -51 10 -60 14
-8 5 -21 6 -29 3 -8 -2 -11 0 -8 5 3 5 -11 9 -31 9 -68 0 -152 9 -152 16 0 4
4 9 9 13 5 3 7 21 4 39 -6 37 18 110 70 215 32 63 98 132 217 225 39 30 70 44
70 33z m-3096 -48 c-3 -5 -10 -7 -15 -3 -5 3 -7 10 -3 15 3 5 10 7 15 3 5 -3
7 -10 3 -15z m-597 -21 c-3 -8 -6 -5 -6 6 -1 11 2 17 5 13 3 -3 4 -12 1 -19z
m537 -53 c-4 -8 -10 -12 -15 -9 -14 8 -10 24 6 24 9 0 12 -6 9 -15z m536 -5
c-69 -4 -134 -9 -145 -13 -11 -3 -40 -8 -65 -11 l-45 -4 34 14 c49 22 129 30
244 25 l102 -5 -125 -6z m3270 0 c0 -5 -7 -10 -15 -10 -8 0 -15 5 -15 10 0 6
7 10 15 10 8 0 15 -4 15 -10z m-2305 -9 c3 -5 2 -12 -3 -15 -5 -3 -9 1 -9 9 0
17 3 19 12 6z m2263 3 c-4 -3 -31 -9 -62 -13 -31 -4 -53 -4 -49 0 7 7 40 13
97 17 11 1 17 -1 14 -4z m-2923 -14 c3 -6 -1 -7 -9 -4 -18 7 -21 14 -7 14 6 0
13 -4 16 -10z m2468 -7 c-7 -2 -19 -2 -25 0 -7 3 -2 5 12 5 14 0 19 -2 13 -5z
m-3113 -48 c-39 -29 -41 -30 -34 -12 2 7 14 17 27 23 39 20 42 15 7 -11z
m-405 5 c-3 -5 -12 -10 -18 -10 -7 0 -6 4 3 10 19 12 23 12 15 0z m-1748 -72
c-3 -7 -5 -2 -5 12 0 14 2 19 5 13 2 -7 2 -19 0 -25z m2108 -8 c3 -5 1 -10 -4
-10 -6 0 -11 5 -11 10 0 6 2 10 4 10 3 0 8 -4 11 -10z m-1722 -17 c-5 -12 -3
-14 7 -8 9 6 11 4 5 -4 -5 -9 -11 -9 -17 -3 -6 6 -7 15 -4 21 11 17 16 13 9
-6z m1112 -11 c1 -14 28 -57 41 -65 8 -4 19 -17 25 -28 9 -18 8 -20 -4 -12
-26 14 -77 85 -77 106 0 18 14 16 15 -1z m2490 -136 c4 -17 7 -42 9 -56 8 -68
98 -169 153 -170 17 -1 17 -2 1 -13 -9 -7 -18 -26 -21 -42 l-4 -30 -2 33 c-1
30 -36 80 -48 68 -3 -3 -14 5 -24 17 -10 12 -18 18 -19 13 0 -5 -7 -3 -15 4
-9 7 -18 10 -22 6 -3 -3 -2 -6 3 -6 5 0 8 -54 8 -122 -2 -114 -3 -123 -24
-140 -18 -15 -25 -16 -31 -6 -5 8 -1 15 11 20 19 7 20 15 16 120 -2 62 -7 124
-10 138 -25 114 -38 199 -33 215 7 17 8 17 27 0 11 -10 22 -32 25 -49z m872
47 c-4 -3 -2 -12 3 -18 8 -9 6 -14 -4 -18 -9 -4 -18 -1 -22 5 -5 7 -2 8 6 3
10 -6 12 -4 7 7 -5 15 0 28 11 28 3 0 2 -3 -1 -7z m-3156 -108 c31 -25 59 -54
62 -65 8 -31 -5 -23 -41 26 -18 24 -57 61 -87 81 -30 20 -55 38 -55 40 0 8 62
-34 121 -82z m513 -63 c-56 -50 -67 -75 -59 -131 6 -41 5 -44 -8 -26 -38 54
-16 126 52 172 52 35 61 26 15 -15z m2656 -7 c-7 -9 -15 -13 -17 -11 -7 7 7
26 19 26 6 0 6 -6 -2 -15z m-40 -25 c-8 -6 -23 -10 -32 -10 -9 0 -19 -4 -22
-8 -2 -4 -19 -8 -38 -9 -26 -2 -19 3 32 20 64 22 88 25 60 7z m-3290 -25 c25
-30 3 -25 -26 6 -22 24 -24 29 -8 21 11 -6 27 -18 34 -27z m3337 3 c-3 -7 -5
-2 -5 12 0 14 2 19 5 13 2 -7 2 -19 0 -25z m-3700 0 c-3 -8 -6 -5 -6 6 -1 11
2 17 5 13 3 -3 4 -12 1 -19z m605 -34 c-4 -33 -36 -73 -49 -60 -4 4 -3 10 3
14 21 13 36 54 29 79 -5 20 -3 22 7 12 8 -7 12 -26 10 -45z m-1545 34 c-2 -7
2 -29 10 -48 8 -19 16 -44 19 -54 2 -11 9 -23 16 -27 7 -4 10 -10 7 -14 -10
-10 -36 29 -53 79 -19 58 -20 76 -5 76 6 0 9 -6 6 -12z m993 -3 c0 -8 -4 -15
-10 -15 -5 0 -10 7 -10 15 0 8 5 15 10 15 6 0 10 -7 10 -15z m2787 -27 c-3 -8
-6 -5 -6 6 -1 11 2 17 5 13 3 -3 4 -12 1 -19z m886 -31 c-8 -13 -23 3 -23 26
0 20 0 20 14 2 8 -11 12 -23 9 -28z m-3688 23 c-3 -5 -12 -10 -18 -10 -7 0 -6
4 3 10 19 12 23 12 15 0z m2836 -7 c13 -16 12 -17 -3 -4 -10 7 -18 15 -18 17
0 8 8 3 21 -13z m-2425 -40 c-2 -3 -17 7 -33 22 l-28 28 33 -23 c18 -12 31
-24 28 -27z m-606 26 c0 -6 7 -9 15 -6 8 4 17 2 20 -4 4 -5 10 -7 14 -5 4 3 8
-1 8 -9 0 -13 -3 -13 -16 -1 -18 15 -44 10 -34 -7 3 -7 2 -8 -3 -4 -5 5 -9 12
-9 15 0 4 -4 13 -8 20 -5 7 -4 12 2 12 6 0 11 -5 11 -11z m698 -44 c2 -1 -3
-5 -10 -8 -8 -2 -27 1 -43 8 -30 13 -30 13 10 8 22 -3 41 -7 43 -8z m3257 -8
c0 -19 -16 -31 -93 -69 -78 -40 -90 -43 -75 -24 10 13 21 22 24 20 4 -2 9 3
12 10 3 8 25 20 49 27 58 17 72 28 57 45 -9 11 -7 14 7 14 13 0 19 -7 19 -23z
m-2775 -9 c0 -6 -6 -5 -15 2 -8 7 -15 14 -15 16 0 2 7 1 15 -2 8 -4 15 -11 15
-16z m-1840 -75 c10 9 11 9 5 -2 -6 -10 -2 -11 16 -5 22 8 92 9 131 1 9 -2 27
-12 38 -22 12 -11 21 -15 20 -10 -5 25 1 27 16 6 27 -38 -2 -45 -54 -15 -44
26 -60 27 -147 9 -26 -6 -35 -1 -62 28 -17 19 -29 38 -25 42 4 3 16 -5 28 -18
17 -20 24 -23 34 -14z m227 5 c-3 -7 -5 -2 -5 12 0 14 2 19 5 13 2 -7 2 -19 0
-25z m3239 9 c17 -7 44 -22 60 -35 21 -17 23 -20 6 -12 -12 6 -28 8 -34 4 -6
-4 -8 -3 -5 3 4 6 -12 15 -36 22 -23 7 -50 15 -59 17 -10 3 -18 0 -18 -7 0 -7
3 -9 7 -6 3 4 17 0 30 -8 13 -9 23 -12 23 -8 0 5 5 1 10 -7 11 -18 14 -40 2
-25 -15 22 -61 35 -87 25 -14 -5 -25 -6 -25 -2 0 12 20 38 20 27 0 -5 5 -2 11
8 11 20 49 21 95 4z m-136 -12 c-7 -8 -18 -15 -24 -15 -6 0 -2 7 8 15 25 19
32 19 16 0z m605 -54 c3 -5 2 -12 -3 -15 -5 -3 -9 1 -9 9 0 17 3 19 12 6z
m-418 -36 c15 -19 33 -35 38 -35 14 -1 40 -39 56 -82 7 -21 16 -38 19 -38 4 0
7 -7 7 -15 0 -24 25 -95 33 -90 4 2 6 -6 5 -18 -3 -35 17 -87 33 -87 9 0 13
-7 9 -20 -3 -11 -2 -18 3 -15 4 2 16 -5 26 -18 15 -16 15 -19 2 -9 -15 12 -17
11 -15 -6 1 -22 17 -23 40 -4 14 12 21 37 34 117 8 51 15 43 12 -15 -2 -51
-24 -110 -41 -110 -4 0 -5 -6 -2 -14 9 -23 -33 -26 -61 -4 -34 27 -80 120 -99
201 -21 90 -65 196 -87 210 -11 7 -19 18 -19 26 0 8 -10 25 -22 38 -12 13 -16
23 -10 23 6 0 24 -16 39 -35z m987 19 c9 -3 16 -10 16 -16 0 -5 -3 -7 -7 -5
-5 3 -17 1 -28 -4 -18 -7 -17 -8 6 -8 15 -1 33 -9 40 -18 12 -15 12 -16 -6 -8
-11 4 -34 8 -51 9 -19 0 -36 7 -43 18 -7 11 -7 18 -1 18 5 0 10 -4 10 -10 0
-5 5 -10 11 -10 5 0 7 5 3 11 -3 6 0 15 7 20 17 10 23 11 43 3z m1353 -40 c8
3 11 1 8 -4 -3 -6 -1 -10 6 -10 7 0 10 -2 8 -5 -3 -2 -44 8 -92 24 -48 15 -85
30 -82 33 3 3 35 -6 72 -19 36 -13 73 -21 80 -19z m376 32 c4 -10 1 -13 -9 -9
-7 3 -14 9 -14 14 0 14 17 10 23 -5z m-4307 -18 c-10 -6 -22 -6 -26 -2 -5 5 3
10 18 11 22 1 24 0 8 -9z m2653 -26 c11 -21 47 -66 81 -101 34 -34 59 -65 56
-68 -3 -4 -6 0 -6 7 0 7 -3 10 -6 7 -4 -4 -20 4 -35 17 -19 16 -36 23 -51 19
-15 -3 -19 -2 -11 4 9 7 8 15 -6 36 -17 26 -31 27 -31 1 0 -8 7 -11 18 -8 16
5 16 5 0 -6 -10 -6 -18 -18 -18 -25 0 -26 -36 19 -43 53 -5 24 -2 34 14 45 17
13 18 16 4 27 -15 12 -12 30 5 30 5 0 18 -17 29 -38z m458 16 c-3 -8 -6 -5 -6
6 -1 11 2 17 5 13 3 -3 4 -12 1 -19z m1224 -15 c13 -16 12 -17 -3 -4 -10 7
-18 15 -18 17 0 8 8 3 21 -13z m-277 -86 c18 -34 18 -37 0 -94 -10 -32 -30
-86 -46 -120 -15 -34 -28 -66 -28 -72 0 -6 -4 -11 -10 -11 -5 0 -10 -6 -10
-14 0 -8 -11 -23 -25 -34 -13 -11 -22 -22 -18 -25 5 -6 -30 -59 -60 -89 -19
-18 -50 -68 -46 -71 2 -2 16 -11 31 -20 23 -14 25 -20 18 -49 -15 -66 -19 -69
-46 -51 -18 11 -24 24 -24 49 0 19 -4 34 -10 34 -5 0 -10 6 -10 13 0 8 -23 24
-50 37 -28 13 -55 29 -61 36 -6 7 12 2 40 -12 73 -35 93 -32 126 19 16 23 36
54 47 69 10 15 18 29 18 32 0 2 19 37 43 78 52 89 107 205 100 212 -3 2 -11 2
-18 0 -16 -6 -25 48 -12 71 5 10 4 21 -4 31 -10 12 -9 13 7 8 10 -3 4 3 -13
15 -18 11 -33 25 -33 31 0 20 75 -38 94 -73z m-5195 49 c14 -8 32 -11 40 -8 9
3 13 1 8 -3 -4 -5 5 -21 20 -37 15 -15 22 -28 16 -28 -6 0 -13 3 -15 8 -4 9
-58 47 -80 55 -11 4 -18 2 -18 -6 0 -8 -4 -6 -10 3 -21 32 -3 39 39 16z m-64
-21 c18 -13 35 -21 39 -18 3 4 6 -1 6 -10 0 -23 -19 -21 -48 6 -17 16 -36 22
-68 22 -54 0 -83 -30 -84 -84 0 -25 -3 -32 -11 -24 -14 14 6 88 32 114 28 28
93 26 134 -6z m3092 -52 c-2 -16 -4 -5 -4 22 0 28 2 40 4 28 2 -13 2 -35 0
-50z m2521 1 c24 -37 64 -125 59 -131 -3 -2 -18 19 -32 49 -15 29 -38 73 -52
98 -18 32 -20 39 -7 24 10 -11 25 -29 32 -40z m-2108 1 c-7 -9 -15 -13 -17
-11 -7 7 7 26 19 26 6 0 6 -6 -2 -15z m-3063 -27 c-3 -8 -6 -5 -6 6 -1 11 2
17 5 13 3 -3 4 -12 1 -19z m3027 -2 c-3 -9 -12 -16 -19 -16 -7 0 -15 -7 -19
-15 -3 -8 -13 -15 -22 -15 -15 0 -14 4 6 25 12 13 27 22 32 19 4 -3 11 2 14
11 4 9 8 14 10 12 3 -2 2 -12 -2 -21z m-364 -30 c0 -14 -4 -28 -10 -31 -6 -4
-10 7 -10 24 0 17 5 31 10 31 6 0 10 -11 10 -24z m-2537 -31 c-3 -9 -8 -14
-10 -11 -3 3 -2 9 2 15 9 16 15 13 8 -4z m3708 -2 c13 -16 12 -17 -3 -4 -10 7
-18 15 -18 17 0 8 8 3 21 -13z m-4525 -62 c-4 -5 -1 -12 4 -14 6 -3 5 -4 -2
-3 -15 3 -23 26 -8 26 6 0 9 -4 6 -9z m5943 -31 c0 -10 -3 -8 -9 5 -12 27 -12
43 0 25 5 -8 9 -22 9 -30z m-5884 20 c-3 -5 -12 -10 -18 -10 -7 0 -6 4 3 10
19 12 23 12 15 0z m59 2 c3 -5 -1 -9 -9 -9 -8 0 -12 4 -9 9 3 4 7 8 9 8 2 0 6
-4 9 -8z m-39 -12 c-3 -5 -1 -10 4 -10 15 0 14 -27 -1 -36 -7 -5 -9 -2 -5 9 3
9 1 17 -5 19 -11 4 -3 28 8 28 3 0 2 -4 -1 -10z m4701 -2 c4 -7 3 -8 -4 -4 -7
4 -12 2 -12 -5 0 -7 -3 -10 -6 -6 -6 5 3 27 11 27 2 0 7 -5 11 -12z m-89 -18
c4 -11 2 -12 -5 -2 -5 7 -16 10 -27 6 -13 -5 -16 -4 -11 5 10 16 38 10 43 -9z
m-4555 -34 c-4 -21 -4 -21 11 -1 12 15 18 17 27 8 15 -14 4 -33 -19 -33 -19 0
-55 33 -46 42 14 13 32 3 27 -16z m5845 -191 c-4 -89 -22 -150 -63 -213 -29
-44 -32 -11 -4 46 39 81 54 160 47 267 l-6 90 15 -50 c10 -34 14 -79 11 -140z
m-889 -30 c-3 -3 -9 2 -12 12 -6 14 -5 15 5 6 7 -7 10 -15 7 -18z m25 -260
c-3 -9 -8 -14 -10 -11 -3 3 -2 9 2 15 9 16 15 13 8 -4z m-87 -122 c-35 -54
-84 -119 -108 -144 -24 -25 -63 -69 -87 -98 -24 -28 -47 -49 -50 -45 -3 3 4
13 17 21 12 9 22 22 22 29 0 8 5 14 10 14 6 0 10 6 10 13 0 8 9 22 20 32 11
10 17 22 14 26 -3 5 0 9 6 9 5 0 19 15 30 33 22 36 173 216 178 212 2 -2 -26
-48 -62 -102z m-275 -347 c-17 -24 -34 -46 -38 -48 -7 -2 -35 -42 -78 -109 -5
-8 -34 -51 -63 -95 -30 -43 -72 -117 -94 -164 -21 -47 -48 -103 -58 -125 l-19
-40 6 35 c3 19 18 59 34 88 16 28 26 52 23 52 -3 0 0 6 5 13 6 6 35 60 65 119
29 58 69 126 87 149 37 47 150 169 156 169 2 0 -10 -20 -26 -44z m-6483 -413
c36 -35 36 -35 10 -29 -21 5 -28 3 -28 -9 0 -8 -6 -15 -14 -15 -9 0 -12 -7 -9
-22 3 -14 1 -18 -4 -12 -11 15 -73 47 -73 37 0 -3 -13 9 -30 27 -44 50 -41 68
6 28 27 -24 55 -35 91 -37 25 -1 27 25 4 53 -7 8 -15 30 -17 48 l-4 33 15 -34
c8 -18 32 -49 53 -68z m6043 9 c-4 -107 -94 -337 -163 -415 -9 -10 -34 -41
-55 -67 -60 -76 -248 -190 -338 -206 -48 -8 -70 -12 -111 -20 -29 -5 -33 -3
-43 28 -7 18 -41 65 -77 103 -87 93 -132 191 -115 253 8 26 8 25 15 -13 7 -43
65 -150 67 -125 1 8 1 26 1 40 -1 60 19 161 39 194 22 38 36 46 36 21 0 -8 -4
-15 -8 -15 -5 0 -13 -19 -20 -42 -18 -69 4 -228 32 -228 4 0 15 24 23 53 17
59 77 150 84 128 2 -7 0 -16 -5 -20 -20 -13 -45 -75 -50 -127 -7 -64 0 -66 66
-29 43 25 71 32 71 18 0 -5 -15 -15 -33 -23 -40 -19 -79 -76 -71 -104 20 -71
121 -75 242 -9 88 48 187 134 241 211 39 55 114 192 106 192 -3 0 2 17 9 38
23 58 46 160 46 199 0 20 3 33 7 30 3 -4 5 -33 4 -65z m70 -263 c-80 -300 -30
-601 129 -772 98 -106 191 -147 336 -147 69 0 104 6 177 31 98 32 138 57 204
127 38 41 62 92 54 117 -27 85 -14 132 43 159 59 28 76 18 76 -45 0 -25 4 -29
29 -29 16 0 42 5 57 11 30 11 94 71 94 89 0 5 5 10 10 10 11 0 -14 -49 -72
-141 -15 -25 -28 -49 -28 -52 0 -3 13 -5 29 -4 16 1 29 6 28 11 -1 5 3 10 10
13 14 5 -26 -101 -58 -155 -38 -62 -123 -163 -193 -231 -78 -75 -87 -68 -15
12 126 140 221 289 203 319 -10 16 -21 7 -82 -74 -91 -121 -122 -156 -122
-135 0 9 4 17 8 17 4 0 37 38 71 85 35 47 67 85 70 85 4 0 8 8 9 18 1 9 5 36
8 59 6 41 6 41 -24 39 -38 -3 -81 -39 -121 -101 -45 -70 -58 -85 -120 -134
-161 -127 -357 -160 -534 -92 -117 45 -232 178 -288 333 -59 159 -62 345 -9
538 17 61 30 113 30 117 0 3 2 4 5 1 3 -3 -3 -39 -14 -79z"/>
<path d="M7931 6684 c0 -11 3 -14 6 -6 3 7 2 16 -1 19 -3 4 -6 -2 -5 -13z"/>
<path d="M7839 6198 c0 -2 -2 -11 -4 -21 -3 -15 -1 -16 11 -6 7 6 11 15 8 20
-5 9 -13 12 -15 7z"/>
<path d="M3386 6665 c15 -14 29 -25 32 -25 3 0 -5 11 -18 25 -13 14 -27 25
-32 25 -5 0 3 -11 18 -25z"/>
<path d="M3447 6565 c-21 -15 -28 -72 -12 -94 8 -12 6 -12 -12 -3 -15 8 -28 9
-45 2 -22 -10 -22 -10 5 -7 15 3 27 0 27 -4 0 -5 -5 -9 -11 -9 -6 0 -8 -8 -5
-17 6 -17 5 -17 -8 0 -17 22 -22 22 -22 -2 0 -11 3 -18 7 -16 10 7 50 -26 44
-36 -4 -5 -1 -9 5 -9 6 0 9 -4 6 -8 -3 -5 3 -18 14 -29 10 -12 16 -24 12 -28
-4 -4 0 -5 8 -3 9 2 14 -3 12 -11 -2 -9 3 -11 13 -7 9 3 19 6 23 6 3 0 -2 6
-12 13 -16 12 -16 13 2 13 21 0 22 -10 5 -42 -10 -16 -9 -21 2 -21 8 0 13 5
12 11 -1 5 15 9 40 7 39 -2 42 -1 48 28 5 22 1 38 -13 58 -10 16 -22 36 -25
46 -4 9 -10 17 -15 17 -4 0 -8 10 -9 21 -2 21 -16 43 -31 45 -26 5 -52 18 -52
25 0 11 32 -1 43 -15 5 -7 7 -3 5 9 -4 27 -17 35 -44 25 -17 -7 -22 -5 -20 6
1 9 9 19 16 24 8 5 12 11 10 14 -3 2 -13 -2 -23 -9z m18 -84 c-6 -5 -25 10
-25 20 0 5 6 4 14 -3 8 -7 12 -15 11 -17z"/>
<path d="M2329 6513 c-13 -16 -12 -17 4 -4 9 7 17 15 17 17 0 8 -8 3 -21 -13z"/>
<path d="M2111 6504 c0 -11 3 -14 6 -6 3 7 2 16 -1 19 -3 4 -6 -2 -5 -13z"/>
<path d="M1600 6365 c-11 -13 -10 -14 4 -9 9 3 16 10 16 15 0 13 -6 11 -20 -6z"/>
<path d="M2155 6161 c-3 -5 -2 -12 3 -15 5 -3 9 1 9 9 0 17 -3 19 -12 6z"/>
<path d="M3137 6083 c-9 -38 -21 -95 -28 -128 -6 -33 -20 -77 -30 -97 -19 -38
-13 -51 11 -24 11 14 78 40 137 53 33 8 182 7 233 -1 l35 -6 -39 22 c-66 39
-174 125 -234 188 -32 33 -61 60 -64 60 -3 0 -12 -30 -21 -67z"/>
<path d="M2163 6114 c-7 -7 -13 -16 -13 -19 0 -12 -54 -65 -67 -65 -8 0 -11
-5 -7 -11 4 -8 -1 -9 -16 -4 -14 5 -20 3 -16 -3 4 -6 -2 -8 -14 -5 -11 3 -28
2 -37 -2 -10 -5 -20 -8 -23 -7 -3 0 -7 -8 -7 -19 -1 -12 2 -17 10 -13 7 4 8 3
4 -2 -5 -5 -12 -9 -15 -9 -18 -1 -30 -17 -25 -34 3 -10 0 -22 -6 -25 -17 -11
-13 -54 7 -65 9 -6 13 -11 7 -11 -5 0 10 -13 34 -29 40 -27 79 -32 65 -10 -3
5 1 9 9 9 7 0 30 18 50 40 26 30 37 52 41 87 4 27 11 72 17 101 6 29 8 59 5
67 -3 8 0 15 6 17 6 2 9 9 7 15 -3 7 -8 7 -16 -3z m-63 -277 c0 -2 -10 -12
-22 -23 l-23 -19 19 23 c18 21 26 27 26 19z"/>
<path d="M2196 6095 c-3 -9 -6 -24 -5 -33 0 -9 5 -4 10 12 9 32 6 48 -5 21z"/>
<path d="M1371 5954 c-30 -8 -68 -23 -85 -34 -32 -20 -108 -109 -112 -132 -1
-7 -7 -33 -14 -58 -27 -102 -21 -170 22 -256 l21 -42 37 23 c72 45 187 104
226 114 63 17 76 32 82 90 4 46 7 52 25 49 15 -2 23 -13 28 -36 4 -18 9 -35
11 -37 2 -2 40 3 84 12 75 16 82 19 90 47 5 16 18 34 29 40 40 22 45 43 13 55
-34 14 -89 57 -81 64 3 4 -1 7 -11 7 -9 0 -15 4 -11 9 9 16 -62 66 -118 84
-65 21 -163 21 -236 1z"/>
<path d="M1872 5738 c-13 -13 -16 -32 -4 -24 4 2 8 -4 8 -14 0 -14 -4 -16 -17
-9 -11 6 -21 4 -28 -5 -10 -11 -1 -14 51 -14 68 0 92 8 107 36 8 14 4 17 -22
17 -18 0 -38 5 -45 12 -17 16 -35 16 -50 1z"/>
<path d="M1857 5650 c-32 -4 -61 -11 -65 -15 -4 -4 7 -5 23 -1 17 3 53 6 82 8
29 1 50 5 47 10 -3 4 -11 7 -17 7 -7 -1 -38 -5 -70 -9z"/>
<path d="M1684 5618 c-35 -9 -42 -14 -40 -34 1 -28 3 -29 50 -9 20 8 36 12 36
8 1 -10 30 28 30 39 0 10 -22 9 -76 -4z"/>
<path d="M1840 5604 c-53 -15 -85 -38 -74 -55 3 -5 0 -9 -6 -9 -6 0 -9 -4 -6
-8 6 -11 -15 -14 -78 -13 -28 1 -53 -4 -57 -10 -4 -6 -12 -8 -18 -5 -6 4 -9
12 -5 17 7 13 -19 7 -28 -6 -13 -18 -8 -28 7 -15 18 15 20 -1 3 -18 -10 -10
-10 -17 0 -32 6 -11 12 -35 12 -53 0 -34 0 -34 56 -40 31 -3 59 -8 61 -11 10
-10 -20 -37 -34 -32 -7 3 -13 0 -13 -6 0 -9 -3 -9 -11 -1 -16 16 -48 4 -44
-16 2 -14 -2 -17 -19 -14 -13 3 -28 -2 -35 -11 -8 -9 -19 -16 -26 -16 -8 0
-11 -8 -8 -22 4 -19 3 -20 -6 -8 -9 12 -11 11 -11 -9 0 -20 -2 -21 -15 -11
-22 18 -19 8 16 -59 20 -38 51 -76 83 -102 28 -23 58 -49 67 -56 14 -12 17
-12 23 2 3 9 2 13 -4 10 -13 -8 -13 1 1 26 5 11 14 17 20 14 5 -4 9 3 9 13 0
23 45 56 66 48 7 -3 13 -2 13 2 -3 20 3 23 18 11 11 -10 14 -10 9 -1 -4 6 -3
12 2 12 5 0 34 23 63 50 29 28 57 50 61 50 4 0 8 5 8 11 0 5 -6 7 -12 3 -8 -4
-9 -3 -5 2 5 5 14 9 20 9 7 0 14 4 17 9 3 6 -25 10 -65 11 -38 0 -80 6 -91 13
-12 6 -24 9 -27 6 -3 -3 -2 9 2 28 9 38 75 177 121 256 36 60 34 61 -60 36z
m-95 -404 c3 -5 -1 -10 -9 -10 -9 0 -16 5 -16 10 0 6 4 10 9 10 6 0 13 -4 16
-10z"/>
<path d="M1399 5514 c-58 -30 -121 -67 -139 -82 l-33 -28 30 -44 c68 -102 89
-134 104 -163 l16 -31 35 74 c47 100 56 121 88 215 15 44 31 88 35 98 12 29
-23 19 -136 -39z"/>
<path d="M2955 5473 c-9 -32 -24 -87 -32 -123 -8 -36 -19 -76 -24 -89 -10 -24
-9 -24 37 -17 26 3 53 11 60 17 8 6 14 8 14 3 0 -4 5 -3 12 4 7 7 20 12 29 12
10 0 28 17 40 37 29 46 27 108 -3 141 -20 20 -99 72 -112 72 -2 0 -12 -26 -21
-57z"/>
<path d="M4063 5423 c-33 -6 -48 -29 -23 -36 11 -3 23 -1 26 4 3 5 10 7 15 4
5 -4 18 0 29 8 18 13 19 15 5 21 -9 3 -20 5 -23 5 -4 -1 -17 -4 -29 -6z"/>
<path d="M2215 5413 c-110 -26 -255 -86 -241 -101 3 -3 1 -12 -6 -19 -19 -23
12 -36 35 -15 17 15 17 17 2 28 -14 11 -14 12 0 18 9 3 13 2 10 -3 -10 -17 16
-23 33 -9 32 27 167 87 217 96 49 10 50 10 10 10 -22 0 -49 -2 -60 -5z"/>
<path d="M2355 5396 c11 -8 23 -12 28 -9 13 8 -3 23 -26 23 -20 0 -20 0 -2
-14z"/>
<path d="M1566 5363 c-6 -14 -5 -15 5 -6 7 7 10 15 7 18 -3 3 -9 -2 -12 -12z"/>
<path d="M3912 5344 c-12 -8 -22 -12 -22 -9 0 4 -7 0 -15 -8 -8 -9 -20 -17
-27 -19 -9 -3 -8 -12 6 -33 18 -27 20 -28 30 -11 6 11 28 37 49 58 28 29 33
38 19 38 -10 0 -28 -7 -40 -16z"/>
<path d="M1930 5279 c0 -5 5 -7 10 -4 6 3 10 8 10 11 0 2 -4 4 -10 4 -5 0 -10
-5 -10 -11z"/>
<path d="M2730 5219 c-30 -5 -75 -9 -100 -10 -25 0 -63 -4 -84 -10 -22 -6 -49
-12 -60 -13 -56 -8 -95 -19 -91 -26 3 -5 -3 -7 -12 -6 -10 2 -25 0 -33 -5 -31
-15 -117 -48 -166 -62 -43 -13 -56 -13 -77 -2 -24 12 -25 12 -21 -8 3 -12 5
-61 6 -109 0 -49 4 -88 8 -88 4 0 14 7 21 16 12 15 73 46 259 132 30 14 57 26
60 26 3 1 19 6 35 13 57 22 70 26 85 28 8 1 34 7 57 14 71 19 169 15 200 -10
11 -9 14 -10 9 -1 -4 6 -3 12 2 12 11 0 28 41 36 88 l6 32 -43 -1 c-23 -1 -67
-6 -97 -10z"/>
<path d="M4106 5174 c-8 -22 -8 -24 8 -24 10 0 13 -8 10 -27 -7 -36 4 -25 16
16 8 29 7 31 -10 26 -15 -5 -18 -3 -14 9 3 9 4 16 1 16 -3 0 -8 -7 -11 -16z"/>
<path d="M1407 5123 c24 -38 86 -117 96 -121 4 -2 7 -9 7 -16 0 -6 16 -36 36
-66 20 -30 35 -56 33 -57 -2 -1 -1 -4 3 -8 3 -4 11 3 18 14 9 18 7 27 -14 54
-13 17 -39 65 -57 105 -17 40 -34 70 -37 68 -2 -3 -18 8 -36 24 -17 17 -39 30
-49 30 -17 0 -17 -1 0 -27z"/>
<path d="M4096 5125 c4 -8 2 -15 -4 -15 -5 0 -12 -10 -15 -21 -4 -16 -3 -19 5
-11 6 6 18 8 27 5 13 -4 14 -3 2 5 -12 8 -12 14 -3 25 12 13 7 27 -9 27 -5 0
-6 -7 -3 -15z"/>
<path d="M800 5120 c0 -5 5 -10 11 -10 5 0 7 5 4 10 -3 6 -8 10 -11 10 -2 0
-4 -4 -4 -10z"/>
<path d="M2030 5060 c-19 -25 -39 -48 -45 -52 -5 -4 -7 -8 -3 -8 4 0 0 -17 -8
-37 -19 -44 -20 -133 -3 -144 7 -4 14 -14 15 -22 2 -17 84 -107 97 -107 4 0 1
12 -7 28 -19 38 -29 107 -18 129 15 27 22 131 14 198 l-7 59 -35 -44z"/>
<path d="M4087 5057 c-3 -8 1 -14 8 -14 7 0 11 6 8 14 -3 7 -6 13 -8 13 -2 0
-5 -6 -8 -13z"/>
<path d="M4063 5023 c9 -2 15 -8 13 -12 -3 -4 4 -8 15 -8 17 -2 17 0 5 13 -8
8 -23 13 -33 13 -17 -1 -17 -2 0 -6z"/>
<path d="M5639 5810 l-36 -19 -2 -80 c-1 -56 3 -89 14 -111 18 -35 25 -36 55
-12 29 24 42 103 29 180 -5 31 -9 58 -9 60 0 6 -18 0 -51 -18z"/>
<path d="M5542 5780 l-23 -10 27 -47 c15 -27 29 -50 31 -52 2 -2 3 23 3 57 0
65 -1 66 -38 52z"/>
<path d="M5722 5646 c2 -16 -19 -63 -32 -71 -5 -3 -8 -11 -5 -16 3 -5 -1 -6
-9 -3 -10 4 -16 1 -16 -7 0 -7 -3 -9 -6 -6 -4 3 -15 2 -25 -4 -14 -7 -17 -6
-14 4 3 7 -2 21 -10 32 -15 19 -15 18 -11 -20 2 -22 9 -41 15 -43 6 -2 18 -17
27 -33 8 -16 19 -27 23 -24 5 3 7 -5 3 -17 -5 -22 -4 -22 15 -5 27 24 46 21
84 -10 l32 -27 -6 93 c-4 57 -13 103 -22 117 -8 13 -15 29 -15 37 0 8 -7 14
-15 14 -8 0 -14 -5 -13 -11z"/>
<path d="M5554 5414 l-21 -75 25 6 c48 12 81 43 76 71 -6 32 -33 74 -48 74 -6
0 -20 -34 -32 -76z"/>
<path d="M5742 5396 c6 -14 15 -26 20 -26 10 0 -7 36 -22 45 -6 4 -5 -5 2 -19z"/>
<path d="M4623 5292 c-16 -2 -23 -10 -23 -26 0 -23 43 -181 78 -291 57 -174
158 -398 176 -388 6 3 8 3 4 -1 -12 -14 27 -89 162 -306 29 -47 69 -111 88
-142 19 -32 36 -58 37 -58 2 0 -3 24 -11 53 -22 84 -18 236 10 352 28 114 77
258 112 328 13 26 21 47 19 47 -4 0 29 64 108 205 25 44 43 83 40 87 -5 9
-163 58 -278 87 -144 36 -433 66 -522 53z"/>
<path d="M6660 6334 c-176 -46 -174 -45 -146 -107 8 -18 23 -57 35 -87 46
-124 113 -285 120 -292 9 -10 96 126 116 182 1 3 5 14 10 25 37 90 42 111 32
133 -5 12 -14 22 -19 22 -5 0 -7 -4 -4 -9 4 -5 -2 -8 -11 -6 -67 14 -71 16
-91 57 -23 45 -21 58 9 58 10 0 19 5 19 10 0 6 7 10 16 10 8 0 12 5 9 10 -8
13 -28 12 -95 -6z"/>
<path d="M6220 6211 c0 -5 6 -11 13 -14 8 -3 14 1 14 9 0 8 -6 14 -14 14 -7 0
-13 -4 -13 -9z"/>
<path d="M6087 6174 c-11 -11 -8 -36 3 -29 11 7 14 -8 3 -19 -4 -3 -8 -16 -10
-28 -2 -12 -1 -19 3 -16 3 3 6 12 8 20 1 7 5 18 9 25 9 14 -6 57 -16 47z"/>
<path d="M6110 6165 c0 -2 6 -8 13 -14 10 -8 14 -7 14 2 0 8 -6 14 -14 14 -7
0 -13 -1 -13 -2z"/>
<path d="M6846 6092 c-3 -5 1 -9 9 -9 8 0 12 4 9 9 -3 4 -7 8 -9 8 -2 0 -6 -4
-9 -8z"/>
<path d="M6669 5760 c-2 -19 1 -49 6 -75 2 -11 4 -39 4 -63 1 -27 5 -41 11
-37 6 4 18 -2 28 -13 13 -16 22 -18 40 -12 28 12 28 19 -5 69 -19 30 -29 38
-36 29 -6 -9 -7 -8 -3 4 3 10 -6 39 -19 65 -13 27 -25 41 -26 33z m28 -152
c-3 -8 -6 -5 -6 6 -1 11 2 17 5 13 3 -3 4 -12 1 -19z"/>
<path d="M6810 5564 c0 -3 5 -14 11 -25 10 -20 12 -20 30 -3 10 9 16 21 13 25
-6 10 -54 12 -54 3z"/>
<path d="M7080 4903 c-14 -9 -43 -33 -66 -52 -22 -20 -72 -63 -109 -96 -77
-67 -176 -167 -171 -172 2 -2 -11 -19 -28 -37 -32 -35 -47 -53 -59 -73 -5 -8
10 -22 45 -40 44 -23 157 -73 165 -74 2 0 22 -8 45 -19 75 -33 213 -68 304
-78 49 -6 92 -8 95 -6 4 2 -2 39 -12 81 -11 43 -26 116 -35 163 -23 122 -125
420 -143 420 -4 0 -18 -8 -31 -17z"/>
<path d="M8820 4858 c-25 -42 -27 -48 -8 -28 32 35 60 80 49 80 -5 0 -24 -24
-41 -52z"/>
<path d="M6759 4741 c-8 -17 -16 -25 -20 -20 -4 7 -9 4 -12 -6 -4 -9 -3 -13 2
-10 5 3 12 1 16 -5 3 -5 1 -10 -4 -10 -6 0 -11 -5 -11 -11 0 -8 4 -8 13 -1 8
7 18 7 27 2 16 -10 33 -3 25 10 -3 5 -11 7 -18 4 -9 -3 -13 4 -13 21 0 26 11
34 18 13 2 -6 10 -8 16 -4 9 5 9 13 2 27 -15 27 -26 24 -41 -10z"/>
<path d="M6696 4683 c-6 -14 -5 -15 5 -6 7 7 10 15 7 18 -3 3 -9 -2 -12 -12z"/>
<path d="M6167 4623 c3 -7 9 -10 14 -7 14 8 11 21 -5 21 -8 0 -12 -6 -9 -14z"/>
<path d="M6193 4610 c-8 -22 -8 -32 2 -40 9 -8 11 -4 7 15 -3 16 0 25 8 25 7
0 10 -6 7 -13 -3 -8 -2 -19 2 -26 6 -9 11 -8 21 4 11 14 10 20 -11 41 l-25 24
-11 -30z"/>
<path d="M6263 4575 c0 -8 4 -12 9 -9 4 3 8 9 8 15 0 5 -4 9 -8 9 -5 0 -9 -7
-9 -15z"/>
<path d="M6297 4564 c6 -16 19 -18 27 -5 3 5 -3 11 -13 14 -14 3 -18 1 -14 -9z"/>
<path d="M8028 6123 c7 -3 16 -2 19 1 4 3 -2 6 -13 5 -11 0 -14 -3 -6 -6z"/>
<path d="M7001 5894 c0 -11 3 -14 6 -6 3 7 2 16 -1 19 -3 4 -6 -2 -5 -13z"/>
<path d="M7411 5750 c-30 -11 -56 -22 -59 -25 -3 -2 17 -14 44 -26 39 -17 73
-22 173 -25 97 -3 128 -8 142 -20 17 -15 18 -15 14 7 -3 13 -15 31 -27 41 -85
64 -194 82 -287 48z"/>
<path d="M7363 5659 c7 -54 -19 -119 -57 -144 -35 -23 -33 -30 12 -31 20 0 64
-3 97 -7 33 -3 98 -9 145 -12 47 -3 104 -8 128 -11 23 -3 42 -2 42 1 0 15 -94
187 -104 190 -6 2 -42 6 -81 9 -100 8 -111 10 -129 25 -9 7 -16 10 -16 7 0 -4
-10 -2 -22 5 -20 11 -21 10 -15 -32z"/>
<path d="M7790 5523 c15 -54 33 -83 51 -83 15 0 16 4 6 30 -7 19 -14 25 -19
17 -4 -7 -13 2 -23 26 -18 43 -27 49 -15 10z"/>
<path d="M7898 5433 c7 -3 16 -2 19 1 4 3 -2 6 -13 5 -11 0 -14 -3 -6 -6z"/>
<path d="M8120 5399 c-12 -9 -12 -10 4 -5 11 4 23 1 27 -6 4 -7 11 -9 14 -6 9
9 -3 28 -18 28 -7 0 -19 -5 -27 -11z"/>
<path d="M8185 5380 c3 -5 8 -10 11 -10 2 0 4 5 4 10 0 6 -5 10 -11 10 -5 0
-7 -4 -4 -10z"/>
<path d="M3190 4959 c0 -5 5 -7 10 -4 6 3 10 8 10 11 0 2 -4 4 -10 4 -5 0 -10
-5 -10 -11z"/>
</g>
</svg>
